<svg id="svg" version="1.1" xmlns="http://www.w3.org/2000/svg" style="display: block;" viewBox="0 0 185 186"><path d="M0 0 C61.05 0 122.1 0 185 0 C185 61.38 185 122.76 185 186 C123.95 186 62.9 186 0 186 C0 124.62 0 63.24 0 0 Z " transform="translate(0,0)" style="fill: #1F190D;"/><path d="M0 0 C61.05 0 122.1 0 185 0 C185 61.38 185 122.76 185 186 C123.95 186 62.9 186 0 186 C0 124.62 0 63.24 0 0 Z M76 4 C74.69059129 4.31147176 73.37785019 4.60918989 72.0625 4.89453125 C61.70952546 7.17293421 61.70952546 7.17293421 53 13 C52.67 13.66 52.34 14.32 52 15 C50.21484375 15.640625 50.21484375 15.640625 47.9375 16.25 C42.90722677 17.82196038 38.77862797 20.30373994 35 24 C35 24.66 35 25.32 35 26 C34.11054687 26.38865234 34.11054687 26.38865234 33.203125 26.78515625 C23.14850965 32.32945656 15.47242471 46.48988029 12 57 C10.91649132 60.25052604 9.85735954 63.31380901 8.4375 66.4375 C5.33826949 74.1182017 5.81694799 82.14153536 5.8125 90.3125 C5.80025391 91.48490234 5.78800781 92.65730469 5.77539062 93.86523438 C5.76061971 102.68346892 6.66559018 110.78484506 9.625 119.125 C9.88539062 119.87007813 10.14578125 120.61515625 10.4140625 121.3828125 C10.60742188 121.91648437 10.80078125 122.45015625 11 123 C11.66 123 12.32 123 13 123 C13.061875 123.804375 13.12375 124.60875 13.1875 125.4375 C16.04690768 137.97490289 26.93336361 151.34700158 37 159 C37.75410156 159.62648437 38.50820313 160.25296875 39.28515625 160.8984375 C43.4491462 164.30470641 46.79589181 166.46242258 52 168 C53.11375 168.9590625 53.11375 168.9590625 54.25 169.9375 C57.51315676 172.38486757 60.41164055 173.15393976 64.30859375 174.2109375 C67.85396268 175.25036351 71.19089169 176.66652694 74.578125 178.1328125 C80.43068585 180.22840687 86.36080545 180.19216681 92.5 180.1875 C93.81436035 180.1884668 93.81436035 180.1884668 95.15527344 180.18945312 C102.57879295 180.12978289 109.69263795 179.35500753 117 178 C117 177.34 117 176.68 117 176 C119.97 175.67 122.94 175.34 126 175 C126 174.34 126 173.68 126 173 C129.96 172.01 129.96 172.01 134 171 C134 170.34 134 169.68 134 169 C134.99 168.67 135.98 168.34 137 168 C138.26026798 165.47946405 137.91874445 164.1457902 137.5625 161.375 C137.40974609 160.14910156 137.40974609 160.14910156 137.25390625 158.8984375 C137.17011719 158.27195313 137.08632812 157.64546875 137 157 C136.34 157 135.68 157 135 157 C134.01 153.535 134.01 153.535 133 150 C132.34 150 131.68 150 131 150 C130.79375 149.030625 130.5875 148.06125 130.375 147.0625 C129.23273764 143.1037003 127.24314012 140.2496466 124.8984375 136.8984375 C122.43807586 133.14208289 120.28612949 129.2466428 118.125 125.3125 C117.48715576 124.1519812 117.48715576 124.1519812 116.83642578 122.96801758 C115.97869281 121.40698254 115.12110748 119.84586636 114.26367188 118.28466797 C111.24095748 112.81972181 108.11525589 107.41253956 105 102 C104.34 102 103.68 102 103 102 C102.5359375 100.576875 102.5359375 100.576875 102.0625 99.125 C101.12605258 96.13919592 101.12605258 96.13919592 100 94 C108.91 94 117.82 94 127 94 C126.875 103.3125 126.875 103.3125 126.81982422 106.2355957 C126.8148291 106.99960693 126.80983398 107.76361816 126.8046875 108.55078125 C126.79421387 109.33106689 126.78374023 110.11135254 126.77294922 110.9152832 C126.87119141 113.3065848 126.87119141 113.3065848 129 116 C132.65288193 117.21762731 135.15754136 117.39075851 139 117 C141.97551795 115.22396702 144.42755188 113.14489623 146 110 C146.039992 108.00039988 146.04346799 105.99952758 146 104 C146.66 104.33 147.32 104.66 148 105 C148.02187378 106.01368652 148.02187378 106.01368652 148.04418945 107.04785156 C148.11875411 110.11580522 148.21538655 113.18268076 148.3125 116.25 C148.33505859 117.31347656 148.35761719 118.37695312 148.38085938 119.47265625 C148.41630859 120.49746094 148.45175781 121.52226563 148.48828125 122.578125 C148.51446533 123.52075195 148.54064941 124.46337891 148.56762695 125.43457031 C149.0746773 128.44308813 149.83443652 129.86214029 152 132 C155.62563814 132.33380814 155.62563814 132.33380814 159 132 C159 131.34 159 130.68 159 130 C161.475 129.01 161.475 129.01 164 128 C164 116.78 164 105.56 164 94 C168.29 94 172.58 94 177 94 C181.81375192 90.72171131 181.81375192 90.72171131 183 88 C182.9619069 85.43897128 182.86045731 82.92734347 182.6875 80.375 C182.63972412 79.64949951 182.59194824 78.92399902 182.54272461 78.17651367 C182.04039786 71.35177205 180.76507979 65.32018237 178 59 C177.34 59 176.68 59 176 59 C175.87882813 58.36191406 175.75765625 57.72382812 175.6328125 57.06640625 C175.38144531 55.82697266 175.38144531 55.82697266 175.125 54.5625 C174.88136719 53.32693359 174.88136719 53.32693359 174.6328125 52.06640625 C174.31957031 51.04353516 174.31957031 51.04353516 174 50 C173.34 49.67 172.68 49.34 172 49 C171.375 46.9375 171.375 46.9375 171 45 C170.34 45 169.68 45 169 45 C168.95875 44.319375 168.9175 43.63875 168.875 42.9375 C167.64701039 38.81496347 165.15076207 35.90003829 162 33 C161.34 33 160.68 33 160 33 C159.7421875 32.41734375 159.484375 31.8346875 159.21875 31.234375 C157.90165983 28.8197097 156.44911616 27.18259823 154.5 25.25 C153.8915625 24.63640625 153.283125 24.0228125 152.65625 23.390625 C151.10515723 21.78565912 151.10515723 21.78565912 149 22 C149 21.34 149 20.68 149 20 C145.24039194 16.24039194 142.24099655 15.41105855 137 15 C136.67 14.01 136.34 13.02 136 12 C130.27182172 8.18121448 123.78003141 6.72127994 117 6 C117 5.34 117 4.68 117 4 C108.81942075 2.4830714 100.86927939 1.78685078 92.5625 1.75 C91.30324707 1.73646484 91.30324707 1.73646484 90.01855469 1.72265625 C84.98126897 1.7467293 80.8327761 2.44086098 76 4 Z " transform="translate(0,0)" style="fill: #FBFBFB;"/><path d="M0 0 C0 0.66 0 1.32 0 2 C1.0725 2.103125 2.145 2.20625 3.25 2.3125 C6.85820872 2.97400493 8.36395023 3.57483421 11 6 C10.3235053 9.94299765 8.37510968 13.10316568 6.375 16.5 C6.01599609 17.11875 5.65699219 17.7375 5.28710938 18.375 C4.19619214 20.2528399 3.09877288 22.12674834 2 24 C1.10667969 25.53140625 1.10667969 25.53140625 0.1953125 27.09375 C-0.93612399 29.03335541 -2.06894004 30.97215672 -3.203125 32.91015625 C-5.89957224 37.54687314 -8.55111112 42.20885334 -11.203125 46.87109375 C-12.33301973 48.83858435 -13.48267259 50.79499015 -14.66015625 52.734375 C-16.05158983 55.08723645 -17.04949432 57.44094625 -18 60 C-18.66 60 -19.32 60 -20 60 C-20.495 60.99 -20.495 60.99 -21 62 C-21.495 60.02 -21.495 60.02 -22 58 C-22.66 58 -23.32 58 -24 58 C-24.556875 56.845 -25.11375 55.69 -25.6875 54.5 C-27.21428237 51.47341022 -28.79009652 48.48998181 -30.5 45.5625 C-30.8815625 44.90378906 -31.263125 44.24507812 -31.65625 43.56640625 C-33.31358825 41.6344509 -34.52500581 41.37229785 -37 41 C-35.54963909 46.11985328 -33.24573549 50.17086345 -30.4375 54.625 C-28.06666739 58.39458674 -26.09582271 61.61670914 -25 66 C-46.45 66 -67.9 66 -90 66 C-90 54.96743734 -88.29360931 49.59972039 -84.296875 40.08984375 C-83.48252643 38.14963376 -82.67879252 36.2048984 -81.890625 34.25390625 C-81.55546875 33.44824219 -81.2203125 32.64257812 -80.875 31.8125 C-80.58367187 31.09707031 -80.29234375 30.38164063 -79.9921875 29.64453125 C-79 28 -79 28 -76 27 C-75.28293025 25.69308256 -74.62469505 24.35350594 -74 23 C-72.87000485 21.39028993 -71.7011076 19.80736832 -70.5 18.25 C-69.8915625 17.45078125 -69.283125 16.6515625 -68.65625 15.828125 C-68.1096875 15.22484375 -67.563125 14.6215625 -67 14 C-66.34 14 -65.68 14 -65 14 C-65 13.34 -65 12.68 -65 12 C-60.56923077 9.90769231 -60.56923077 9.90769231 -57.6875 10.375 C-57.130625 10.58125 -56.57375 10.7875 -56 11 C-56 11.66 -56 12.32 -56 13 C-55.34 13 -54.68 13 -54 13 C-53.34 15.31 -52.68 17.62 -52 20 C-51.34 20 -50.68 20 -50 20 C-49.34 22.31 -48.68 24.62 -48 27 C-47.34 27 -46.68 27 -46 27 C-45.5875 27.969375 -45.175 28.93875 -44.75 29.9375 C-43.37507457 33.13811453 -43.37507457 33.13811453 -40.890625 33.69140625 C-39.95476562 33.84416016 -39.95476562 33.84416016 -39 34 C-41.33257133 27.55112634 -44.13219778 21.81299754 -47.828125 16.03125 C-49 14 -49 14 -49 12 C-49.99 11.67 -50.98 11.34 -52 11 C-52.495 8.525 -52.495 8.525 -53 6 C-47.40324584 1.07485634 -41.10090633 0.75084539 -34 1 C-37.75 4 -37.75 4 -40 4 C-41.81643761 7.11389304 -42.2719038 9.40777709 -42.25 13 C-42.25515625 13.845625 -42.2603125 14.69125 -42.265625 15.5625 C-41.97781687 18.2035628 -41.45464938 19.7843089 -40 22 C-34.85305586 24.88228872 -30.87028524 25.75745616 -25 25 C-22.08209475 22.7495803 -22.08209475 22.7495803 -20 20 C-19.34 19.34 -18.68 18.68 -18 18 C-17.75684344 15.33050591 -17.75684344 15.33050591 -17.875 12.375 C-17.89304687 11.37210938 -17.91109375 10.36921875 -17.9296875 9.3359375 C-17.95289062 8.56507812 -17.97609375 7.79421875 -18 7 C-18.99 6.67 -19.98 6.34 -21 6 C-22 5 -23 4 -24 3 C-25.64605826 1.96642853 -27.30963442 0.95939668 -29 0 C-21.4024065 -5.06506234 -8.59379164 -1.29892667 0 0 Z " transform="translate(115,23)" style="fill: #F4AF01;"/><path d="M0 0 C0.495 2.97 0.495 2.97 1 6 C0.195625 6.474375 -0.60875 6.94875 -1.4375 7.4375 C-3.84753488 8.76900154 -3.84753488 8.76900154 -5 10 C-5.23961213 14.23314767 -5.32488647 17.36736489 -3 21 C3.28908482 20.47519999 3.28908482 20.47519999 9 18 C9.495 19.485 9.495 19.485 10 21 C10.66 21 11.32 21 12 21 C12.66 23.31 13.32 25.62 14 28 C14.66 28 15.32 28 16 28 C16.66 30.31 17.32 32.62 18 35 C17.38125 35.04125 16.7625 35.0825 16.125 35.125 C13.70714878 35.84562973 13.70714878 35.84562973 12.6875 38.6875 C11.73276863 43.28756932 12.5348299 46.60448969 14 51 C16.01822917 50.90234375 18.03645833 50.8046875 20.0546875 50.70703125 C20.69664063 50.80371094 21.33859375 50.90039062 22 51 C22.66 51.99 23.32 52.98 24 54 C23.19175781 54.12117188 22.38351563 54.24234375 21.55078125 54.3671875 C19.94783203 54.61855469 19.94783203 54.61855469 18.3125 54.875 C17.25675781 55.03742188 16.20101562 55.19984375 15.11328125 55.3671875 C12.03606348 55.89026025 12.03606348 55.89026025 9.43359375 57.05859375 C2.63596169 59.68817533 -5.93577285 57.89704472 -13 57 C-13.66 57 -14.32 57 -15 57 C-14.67 57.99 -14.34 58.98 -14 60 C-11.92614148 60.76921285 -11.92614148 60.76921285 -9.5 61.125 C-5.07722008 61.92277992 -5.07722008 61.92277992 -4 63 C3.72915587 63.84259142 10.61095253 62.03803702 18 60 C21.13389225 59.27421735 24.2684142 58.55229357 27.40625 57.84375 C30.12196597 56.96032432 31.77109587 55.74224384 34 54 C36.125 54.125 36.125 54.125 38 55 C40.1519437 58.22791555 40.20086443 59.28400809 40 63 C15.31967262 71.51045772 -8.82189931 75.25349445 -33.46875 64.484375 C-36 63 -36 63 -37.0625 60.5625 C-36.98592863 57.4230737 -36.10019634 56.26821205 -34 54 C-33.505 54.268125 -33.01 54.53625 -32.5 54.8125 C-29.0763054 56.43875493 -25.55867715 57.69515171 -22 59 C-22 57.35 -22 55.7 -22 54 C-22.928125 53.71125 -23.85625 53.4225 -24.8125 53.125 C-28 52 -28 52 -31 50 C-29.76026834 45.95547228 -28.28540907 42.46763201 -26.12890625 38.83203125 C-25.27474121 37.38098999 -25.27474121 37.38098999 -24.40332031 35.90063477 C-23.79584961 34.88155029 -23.18837891 33.86246582 -22.5625 32.8125 C-21.29767763 30.67217007 -20.03336167 28.53154081 -18.76953125 26.390625 C-18.13740723 25.32263672 -17.5052832 24.25464844 -16.85400391 23.15429688 C-15.11349609 20.19309579 -13.39960886 17.21875434 -11.69921875 14.234375 C-11.19898193 13.3580542 -10.69874512 12.4817334 -10.18334961 11.57885742 C-9.2442047 9.93011504 -8.30868163 8.27930312 -7.37719727 6.6262207 C-6.95881592 5.89491943 -6.54043457 5.16361816 -6.109375 4.41015625 C-5.74811523 3.77215088 -5.38685547 3.13414551 -5.01464844 2.47680664 C-3.57744106 0.38497136 -2.51495575 0 0 0 Z " transform="translate(93,103)" style="fill: #ECCF72;"/><path d="M0 0 C12.87 0 25.74 0 39 0 C37.68 1.32 36.36 2.64 35 4 C34.21339525 7.75982637 34.79098991 11.37296974 36 15 C37.8871875 15.0309375 37.8871875 15.0309375 39.8125 15.0625 C40.52019531 15.07410156 41.22789063 15.08570312 41.95703125 15.09765625 C44.20305461 15.08263217 44.20305461 15.08263217 47 14 C48.52491998 10.95016004 48.23562548 8.3576631 48 5 C46.60414215 3.18523997 46.60414215 3.18523997 45 2 C45 1.34 45 0.68 45 0 C51.27 0 57.54 0 64 0 C62.38237128 4.0440718 60.68790159 7.45073245 58.515625 11.19140625 C58.17754822 11.77736069 57.83947144 12.36331512 57.4911499 12.96702576 C56.05862344 15.44972978 54.61859095 17.92804981 53.17871094 20.40649414 C48.49643598 28.47771098 44.08434545 36.60406096 40 45 C39.04368629 46.91767515 38.08562814 48.83448245 37.125 50.75 C36.71507812 51.56984375 36.30515625 52.3896875 35.8828125 53.234375 C35.59148438 53.81703125 35.30015625 54.3996875 35 55 C32.36 54.67 29.72 54.34 27 54 C27 53.34 27 52.68 27 52 C26.2575 51.79375 25.515 51.5875 24.75 51.375 C21.82324612 49.91162306 20.94733608 48.67384906 19.3125 45.921875 C16.8754188 42.35329181 13.78102745 39.31528728 10.828125 36.171875 C9 34 9 34 9 32 C8.34 32 7.68 32 7 32 C6.74605469 31.154375 6.49210937 30.30875 6.23046875 29.4375 C4.02568496 22.05347295 4.02568496 22.05347295 1.25 14.875 C0 11 0 11 0 0 Z " transform="translate(25,94)" style="fill: #F1AB00;"/><path d="M0 0 C4.75 0.75 4.75 0.75 7 3 C7.71408334 4.98356483 8.38617742 6.98315437 9 9 C7.72125 9.0825 6.4425 9.165 5.125 9.25 C1.87332545 9.58792185 1.87332545 9.58792185 -0.5 11.6875 C-1.53044911 16.45332712 -1.31620629 19.73523921 1 24 C2.45947705 23.93993922 3.91779272 23.8511311 5.375 23.75 C6.18710938 23.70359375 6.99921875 23.6571875 7.8359375 23.609375 C10.14709018 23.20951751 10.14709018 23.20951751 11.25 21.15625 C12.18502974 18.46803951 12.61608842 15.81535157 13 13 C16.44165927 17.22385456 18 20.50060584 18 26 C17.40832031 26.01417969 16.81664062 26.02835938 16.20703125 26.04296875 C11.74434335 26.31233164 9.56924796 26.53748603 6 29.4375 C4.01298758 31.80921697 4.01298758 31.80921697 3 34 C2.34 34 1.68 34 1 34 C1.47152463 42.63574848 1.47152463 42.63574848 5.625 49.8125 C10.34578543 51.4735171 14.3871018 52.18628646 18.99609375 50.09375 C20.69087462 49.10718317 22.34828961 48.05709465 24 47 C24.66 47 25.32 47 26 47 C26.33 42.71 26.66 38.42 27 34 C30.94220941 35.97110471 31.9151793 36.69160416 33.47265625 40.6484375 C34.59963038 45.67390731 34.20773508 50.88356195 34 56 C32.02 56 30.04 56 28 56 C28 68.21 28 80.42 28 93 C26.68 93 25.36 93 24 93 C23.505 80.625 23.505 80.625 23 68 C19.7 67.34 16.4 66.68 13 66 C13 66.66 13 67.32 13 68 C12.01 68.495 12.01 68.495 11 69 C10.74280183 71.02543556 10.49157878 73.05350224 10.34375 75.08984375 C10 77 10 77 8 79 C3.44444444 78.44444444 3.44444444 78.44444444 2 77 C1.90018786 74.3226862 1.86120125 71.67695825 1.875 69 C1.86919922 67.87464844 1.86919922 67.87464844 1.86328125 66.7265625 C1.87338947 61.12661053 1.87338947 61.12661053 3 60 C4.56172745 59.91314397 6.12729344 59.89297781 7.69140625 59.90234375 C8.63564453 59.90556641 9.57988281 59.90878906 10.55273438 59.91210938 C11.54595703 59.92048828 12.53917969 59.92886719 13.5625 59.9375 C14.55958984 59.94201172 15.55667969 59.94652344 16.58398438 59.95117188 C19.05604849 59.96299993 21.52799518 59.97948151 24 60 C23.505 58.02 23.505 58.02 23 56 C5.51 55.67 -11.98 55.34 -30 55 C-28.57430231 50.72290694 -27.38334458 47.59847018 -25.234375 43.7890625 C-24.68023926 42.80220459 -24.12610352 41.81534668 -23.55517578 40.79858398 C-22.95946777 39.75130127 -22.36375977 38.70401855 -21.75 37.625 C-21.13753418 36.53968994 -20.52506836 35.45437988 -19.89404297 34.33618164 C-13.37693257 22.82461141 -6.70884112 11.40071554 0 0 Z " transform="translate(130,33)" style="fill: #DFA103;"/><path d="M0 0 C3.3 0 6.6 0 10 0 C10 0.66 10 1.32 10 2 C11.0725 2.103125 12.145 2.20625 13.25 2.3125 C16.85820872 2.97400493 18.36395023 3.57483421 21 6 C20.3235053 9.94299765 18.37510968 13.10316568 16.375 16.5 C16.01599609 17.11875 15.65699219 17.7375 15.28710938 18.375 C14.19619214 20.2528399 13.09877288 22.12674834 12 24 C11.40445313 25.0209375 10.80890625 26.041875 10.1953125 27.09375 C9.06387601 29.03335541 7.93105996 30.97215672 6.796875 32.91015625 C4.10042776 37.54687314 1.44888888 42.20885334 -1.203125 46.87109375 C-2.33301973 48.83858435 -3.48267259 50.79499015 -4.66015625 52.734375 C-6.05158983 55.08723645 -7.04949432 57.44094625 -8 60 C-8.66 60 -9.32 60 -10 60 C-10.33 60.66 -10.66 61.32 -11 62 C-11.33 60.68 -11.66 59.36 -12 58 C-12.66 58 -13.32 58 -14 58 C-15.66666667 54.66666667 -17.33333333 51.33333333 -19 48 C-18.01 47.505 -18.01 47.505 -17 47 C-17.165 46.505 -17.33 46.01 -17.5 45.5 C-18.20688818 41.96555911 -18.06005155 38.60309299 -18 35 C-16.515 34.505 -16.515 34.505 -15 34 C-15 33.34 -15 32.68 -15 32 C-13.80375 31.896875 -12.6075 31.79375 -11.375 31.6875 C-8.20608856 30.92200807 -7.17301584 30.22724469 -5.16796875 27.59375 C-1.92799182 21.72868228 -0.15779991 16.66482163 0.3125 10 C0.76210612 6.04346616 2.20388414 3.88631315 5 1 C3.35 1 1.7 1 0 1 C0 0.67 0 0.34 0 0 Z " transform="translate(105,23)" style="fill: #F4AE04;"/><path d="M0 0 C6.24229766 2.54315831 10.37596252 8.46885946 14.625 13.5 C15.10195312 14.05558594 15.57890625 14.61117187 16.0703125 15.18359375 C21.03019626 21.03901208 23.34869493 25.31460021 24 33 C23.34 33 22.68 33 22 33 C22.01160156 33.68707031 22.02320313 34.37414062 22.03515625 35.08203125 C22.04417969 35.98308594 22.05320313 36.88414063 22.0625 37.8125 C22.07410156 38.70582031 22.08570313 39.59914062 22.09765625 40.51953125 C22 43 22 43 21 46 C17.15208514 48.98908047 12.79025941 51.3075762 7.875 51.625 C3.2730631 50.88275211 0.25108406 49.34531838 -3 46 C-4.00496852 42.98509443 -4.10335303 40.95818308 -4.0625 37.8125 C-4.05347656 36.91144531 -4.04445312 36.01039062 -4.03515625 35.08203125 C-4.02355469 34.39496094 -4.01195312 33.70789063 -4 33 C-3.34 33 -2.68 33 -2 33 C-1.7525 32.236875 -1.505 31.47375 -1.25 30.6875 C0.20680612 27.55536685 0.89473363 26.51282208 4 25 C7.04754496 24.75788071 9.93311028 24.86469604 13 25 C11.68 21.37 10.36 17.74 9 14 C8.2884375 15.9490625 8.2884375 15.9490625 7.5625 17.9375 C6.125 21.875 6.125 21.875 5 23 C1.00587961 23.48534132 -2.71822958 23.86707999 -6.125 21.5625 C-7.45279682 17.67395218 -7.01529801 13.95431858 -6 10 C-3.23776722 7.23776722 -0.79293383 7.42143709 3 7 C2.01 4.69 1.02 2.38 0 0 Z " transform="translate(135,34)" style="fill: #1B1008;"/><path d="M0 0 C1.16015625 0.32484375 1.16015625 0.32484375 2.34375 0.65625 C3.90609375 1.07390625 3.90609375 1.07390625 5.5 1.5 C6.5209375 1.7784375 7.541875 2.056875 8.59375 2.34375 C15.50925968 3.6760959 22.25803777 2.88148925 29.1875 2.0625 C30.35829102 1.93198242 30.35829102 1.93198242 31.55273438 1.79882812 C34.66858553 1.44205128 37.71718954 1.05901787 40.7890625 0.41796875 C44.44718789 -0.27358499 47.34757793 0.28149074 51 1 C51.66 1.99 52.32 2.98 53 4 C51.78763672 4.18175781 51.78763672 4.18175781 50.55078125 4.3671875 C49.48214844 4.53476563 48.41351563 4.70234375 47.3125 4.875 C46.25675781 5.03742188 45.20101562 5.19984375 44.11328125 5.3671875 C41.03606348 5.89026025 41.03606348 5.89026025 38.43359375 7.05859375 C31.63596169 9.68817533 23.06422715 7.89704472 16 7 C15.34 7 14.68 7 14 7 C14.33 7.99 14.66 8.98 15 10 C17.07385852 10.76921285 17.07385852 10.76921285 19.5 11.125 C23.92277992 11.92277992 23.92277992 11.92277992 25 13 C32.72915587 13.84259142 39.61095253 12.03803702 47 10 C50.13389225 9.27421735 53.2684142 8.55229357 56.40625 7.84375 C59.12196597 6.96032432 60.77109587 5.74224384 63 4 C65.125 4.125 65.125 4.125 67 5 C69.1519437 8.22791555 69.20086443 9.28400809 69 13 C44.31967262 21.51045772 20.17810069 25.25349445 -4.46875 14.484375 C-7 13 -7 13 -8.0625 10.5625 C-7.98592863 7.4230737 -7.10019634 6.26821205 -5 4 C-4.505 4.268125 -4.01 4.53625 -3.5 4.8125 C-0.0763054 6.43875493 3.44132285 7.69515171 7 9 C7 7.35 7 5.7 7 4 C6.030625 3.71125 5.06125 3.4225 4.0625 3.125 C1 2 1 2 0 0 Z " transform="translate(64,153)" style="fill: #E89400;"/><path d="M0 0 C2.79872437 2.52788007 4.45773019 4.20411134 5 8 C5.66 8 6.32 8 7 8 C7.66 10.31 8.32 12.62 9 15 C9.66 15 10.32 15 11 15 C12 17 13 19 14 21 C14.556875 22.0725 15.11375 23.145 15.6875 24.25 C17 27 17 27 17 29 C17.66 29 18.32 29 19 29 C19.66 31.31 20.32 33.62 21 36 C21.66 36 22.32 36 23 36 C23.66 38.31 24.32 40.62 25 43 C25.66 43 26.32 43 27 43 C27.66 45.31 28.32 47.62 29 50 C29.66 50 30.32 50 31 50 C31.8125 52.6875 31.8125 52.6875 32 56 C29.33677443 59.6082411 27.16146943 61.25336859 22.79296875 61.92578125 C21.25986122 62.07711805 19.72434391 62.20557792 18.1875 62.3125 C17.39923828 62.38533203 16.61097656 62.45816406 15.79882812 62.53320312 C13.86759666 62.70876962 11.93392603 62.85714108 10 63 C10.33 62.34 10.66 61.68 11 61 C13.06640625 60.3671875 13.06640625 60.3671875 15.5625 59.875 C16.80193359 59.62363281 16.80193359 59.62363281 18.06640625 59.3671875 C19.02353516 59.18542969 19.02353516 59.18542969 20 59 C20 58.67 20 58.34 20 58 C18.3603125 57.9071875 18.3603125 57.9071875 16.6875 57.8125 C13 57 13 57 11 54.9375 C9.59214323 50.80192073 10.10226045 48.28152711 11 44 C11.66 43.01 12.32 42.02 13 41 C14.32 41 15.64 41 17 41 C16.01 37.535 16.01 37.535 15 34 C14.34 34 13.68 34 13 34 C12.34 31.69 11.68 29.38 11 27 C10.34 27 9.68 27 9 27 C8.67 26.34 8.34 25.68 8 25 C7.505 25.33 7.01 25.66 6.5 26 C2.74404458 27.50238217 0.04953637 27.38567013 -4 27 C-6.91781637 24.72045596 -6.97820387 23.17436907 -7.4375 19.5 C-7 16 -7 16 -5.1875 13.5625 C-3 12 -3 12 0 12 C-0.33 10.02 -0.66 8.04 -1 6 C-1.99 6.33 -2.98 6.66 -4 7 C-3.43628586 3.73045798 -2.50037734 2.17424117 0 0 Z " transform="translate(94,97)" style="fill: #EFAB04;"/><path d="M0 0 C4.75 0.75 4.75 0.75 7 3 C7.71408334 4.98356483 8.38617742 6.98315437 9 9 C7.72125 9.0825 6.4425 9.165 5.125 9.25 C1.87332545 9.58792185 1.87332545 9.58792185 -0.5 11.6875 C-1.53044911 16.45332712 -1.31620629 19.73523921 1 24 C2.45947705 23.93993922 3.91779272 23.8511311 5.375 23.75 C6.18710938 23.70359375 6.99921875 23.6571875 7.8359375 23.609375 C10.14709018 23.20951751 10.14709018 23.20951751 11.25 21.15625 C12.18502974 18.46803951 12.61608842 15.81535157 13 13 C16.44165927 17.22385456 18 20.50060584 18 26 C17.40832031 26.01417969 16.81664062 26.02835938 16.20703125 26.04296875 C11.74434335 26.31233164 9.56924796 26.53748603 6 29.4375 C4.01298758 31.80921697 4.01298758 31.80921697 3 34 C2.34 34 1.68 34 1 34 C1.25464098 36.1270011 1.52922942 38.25162215 1.8125 40.375 C1.96332031 41.55835938 2.11414063 42.74171875 2.26953125 43.9609375 C2.70699334 47.29532084 2.70699334 47.29532084 6 49 C6 49.66 6 50.32 6 51 C1.38 51 -3.24 51 -8 51 C-8 50.34 -8 49.68 -8 49 C-7.34 49 -6.68 49 -6 49 C-5.34 45.7 -4.68 42.4 -4 39 C-8.82909309 36.58545346 -11.89128033 36.29709344 -17 38 C-17.05447047 39.41623216 -17.09300508 40.83308191 -17.125 42.25 C-17.14820312 43.03890625 -17.17140625 43.8278125 -17.1953125 44.640625 C-17.11496763 47.38989726 -17.11496763 47.38989726 -15 51 C-19.29 51 -23.58 51 -28 51 C-26.55175112 46.65525337 -25.41967407 43.69600455 -23.1640625 39.90234375 C-22.59961426 38.94521484 -22.03516602 37.98808594 -21.45361328 37.00195312 C-20.8501709 35.99068359 -20.24672852 34.97941406 -19.625 33.9375 C-18.36373596 31.80128133 -17.1033371 29.66455163 -15.84375 27.52734375 C-15.20566406 26.44694824 -14.56757812 25.36655273 -13.91015625 24.25341797 C-10.93918703 19.19320123 -8.02892797 14.09890125 -5.125 9 C-4.60760254 8.09241943 -4.09020508 7.18483887 -3.55712891 6.24975586 C-2.37044386 4.16705648 -1.18466334 2.08384979 0 0 Z " transform="translate(130,33)" style="fill: #F1D67C;"/><path d="M0 0 C3.42063864 0.78484149 6.70395199 1.79883717 10 3 C8.98863516 5.02272968 7.98508336 7.02600196 6.859375 8.98828125 C5.85675357 11.33532686 5.97521272 12.67319639 6.25 15.1875 C6.39980626 20.23097726 4.47995811 23.01570772 1.5078125 26.95703125 C-0.07307595 28.93280337 -0.07307595 28.93280337 -0.9375 31.21484375 C-2 33 -2 33 -3.9453125 33.609375 C-5.96354167 33.73958333 -7.98177083 33.86979167 -10 34 C-10 34.66 -10 35.32 -10 36 C-10.99 36.495 -10.99 36.495 -12 37 C-12.19814261 43.08408472 -12.19814261 43.08408472 -11 49 C-12.32 49 -13.64 49 -15 49 C-15.5775 47.865625 -16.155 46.73125 -16.75 45.5625 C-18.25429842 42.65184113 -18.25429842 42.65184113 -21.125 41.375 C-22.053125 41.189375 -22.053125 41.189375 -23 41 C-24.41635866 38.39091826 -24.97536287 36.22594846 -25.296875 33.27734375 C-26.16977995 29.20863678 -27.90593293 26.26606099 -30.0625 22.75 C-34 16.23461538 -34 16.23461538 -34 14 C-34.99 13.67 -35.98 13.34 -37 13 C-37.33 11.35 -37.66 9.7 -38 8 C-32.40324584 3.07485634 -26.10090633 2.75084539 -19 3 C-22.75 6 -22.75 6 -25 6 C-26.81643761 9.11389304 -27.2719038 11.40777709 -27.25 15 C-27.25515625 15.845625 -27.2603125 16.69125 -27.265625 17.5625 C-26.97781687 20.2035628 -26.45464938 21.7843089 -25 24 C-19.85305586 26.88228872 -15.87028524 27.75745616 -10 27 C-7.08209475 24.7495803 -7.08209475 24.7495803 -5 22 C-4.34 21.34 -3.68 20.68 -3 20 C-2.75684344 17.33050591 -2.75684344 17.33050591 -2.875 14.375 C-2.89304688 13.37210938 -2.91109375 12.36921875 -2.9296875 11.3359375 C-2.95289063 10.56507812 -2.97609375 9.79421875 -3 9 C-3.99 8.67 -4.98 8.34 -6 8 C-7 7 -8 6 -9 5 C-10.64605826 3.96642853 -12.30963442 2.95939668 -14 2 C-9.5081849 -0.9945434 -5.27056024 -0.47229696 0 0 Z " transform="translate(100,21)" style="fill: #F2D77C;"/><path d="M0 0 C0.03867187 1.14275391 0.03867187 1.14275391 0.078125 2.30859375 C0.41516146 8.44418932 1.18730382 13.104757 3.95703125 18.57421875 C5.66783485 22.55327881 6.36745264 26.74689927 7.19140625 30.984375 C8.44313896 35.65267284 10.40725843 38.84100871 14.25 41.75 C18.52090118 45.24685725 21.96768351 49.39161627 25 54 C25 54.66 25 55.32 25 56 C27.93720508 57.52299523 30.9168649 58.80100302 34 60 C33.25 65.75 33.25 65.75 31 68 C26.07665017 67.89725183 23.29943699 64.9893003 19.9375 61.75 C19.1630957 61.03263672 19.1630957 61.03263672 18.37304688 60.30078125 C15.28388466 57.39657524 12.60030643 54.35994651 10 51 C9.4225 50.443125 8.845 49.88625 8.25 49.3125 C7 48 7 48 7 46 C6.34 46 5.68 46 5 46 C4.6596875 45.0409375 4.6596875 45.0409375 4.3125 44.0625 C2.81117078 40.55939849 0.95930193 37.36459807 -0.9765625 34.0859375 C-2 32 -2 32 -2 29 C-2.66 29 -3.32 29 -4 29 C-4.19335938 28.18015625 -4.38671875 27.3603125 -4.5859375 26.515625 C-4.84632812 25.43796875 -5.10671875 24.3603125 -5.375 23.25 C-5.63023438 22.18265625 -5.88546875 21.1153125 -6.1484375 20.015625 C-6.85266019 17.09258992 -6.85266019 17.09258992 -8.09375 15 C-9.36351136 12.19776804 -9.19144334 9.80639342 -9.125 6.75 C-9.10695313 5.67234375 -9.08890625 4.5946875 -9.0703125 3.484375 C-9.04710937 2.66453125 -9.02390625 1.8446875 -9 1 C-6.04335481 -0.4783226 -3.25770263 -0.06032783 0 0 Z " transform="translate(20,93)" style="fill: #E49100;"/><path d="M0 0 C2.24784424 0.77719411 3.54274893 1.65865344 5.33935547 3.20166016 C5.93103516 3.70826172 6.52271484 4.21486328 7.13232422 4.73681641 C8.04304687 5.53539062 8.04304687 5.53539062 8.97216797 6.35009766 C9.87128906 7.11386719 9.87128906 7.11386719 10.78857422 7.89306641 C17.04023724 13.30394177 21.98117981 19.14710516 26.28466797 26.22509766 C26.93822266 27.28728516 27.59177734 28.34947266 28.26513672 29.44384766 C34.00507853 39.72434046 39.56571515 53.76692774 38.09716797 65.72509766 C36.09716797 67.72509766 36.09716797 67.72509766 32.47216797 67.85009766 C31.35841797 67.80884766 30.24466797 67.76759766 29.09716797 67.72509766 C29.00242187 66.46632812 29.00242187 66.46632812 28.90576172 65.18212891 C27.31557679 49.56483898 23.82971986 33.60633467 12.03857422 22.58837891 C11.39791016 21.97349609 10.75724609 21.35861328 10.09716797 20.72509766 C10.09716797 20.06509766 10.09716797 19.40509766 10.09716797 18.72509766 C9.43716797 18.72509766 8.77716797 18.72509766 8.09716797 18.72509766 C7.54029297 17.64228516 7.54029297 17.64228516 6.97216797 16.53759766 C3.9123731 11.94790536 -0.72473897 9.45112868 -5.90283203 7.72509766 C-5.53570231 5.00833771 -5.17538604 3.11446053 -3.59033203 0.85009766 C-1.90283203 -0.27490234 -1.90283203 -0.27490234 0 0 Z " transform="translate(139.90283203125,21.27490234375)" style="fill: #E69200;"/><path d="M0 0 C2.875 0.5 2.875 0.5 4.75 2.3125 C5.875 4.5 5.875 4.5 5.875 7.5 C4.699375 7.83 3.52375 8.16 2.3125 8.5 C-3.01975718 10.49959644 -5.67950676 14.1346692 -9.125 18.5 C-10.34682548 19.90226384 -11.57587489 21.29827009 -12.8125 22.6875 C-13.92616993 23.95001364 -15.03001782 25.22124459 -16.125 26.5 C-16.78886719 27.23089844 -17.45273437 27.96179688 -18.13671875 28.71484375 C-20.65817125 32.24685874 -21.89704797 35.78035152 -23.25 39.875 C-23.50136719 40.60460938 -23.75273437 41.33421875 -24.01171875 42.0859375 C-26.25292567 48.65701537 -28.28003727 54.96638612 -28.75 61.9375 C-28.82476562 62.98808594 -28.89953125 64.03867188 -28.9765625 65.12109375 C-29.02554687 65.90613281 -29.07453125 66.69117187 -29.125 67.5 C-31.435 67.5 -33.745 67.5 -36.125 67.5 C-38.28970506 63.17058987 -36.59825413 57.18624474 -36.125 52.5 C-36.00898437 51.03240234 -36.00898437 51.03240234 -35.890625 49.53515625 C-33.64802083 30.07255578 -19.68988188 14.54228648 -5.484375 2.20703125 C-3.125 0.5 -3.125 0.5 0 0 Z " transform="translate(49.125,21.5)" style="fill: #E69200;"/><path d="M0 0 C-0.33 0.99 -0.66 1.98 -1 3 C-1.25173282 6.4613263 -1.34480197 9.12650167 -0.0625 12.375 C3.21880464 14.96027033 6.92605169 14.82918456 11 15 C11.33 14.01 11.66 13.02 12 12 C14.7839183 13.39195915 14.97898997 15.15575779 16 18 C14.80375 18.185625 13.6075 18.37125 12.375 18.5625 C8.09601038 19.65889592 5.74678773 21.45079879 3.05859375 24.92578125 C1.21453368 28.53905024 1.39710506 32.06210391 2 36 C2.75150023 39.27773504 2.75150023 39.27773504 6 41 C6 41.66 6 42.32 6 43 C2.7 43 -0.6 43 -4 43 C-4.103125 41.7625 -4.20625 40.525 -4.3125 39.25 C-4.77986502 35.73541502 -5.10914849 33.31268121 -8 31 C-11.85097134 30.43985871 -14.05949997 30.44534614 -17.4375 32.4375 C-19.73784649 36.21006824 -19.33148757 39.69066159 -19 44 C-20.65 44 -22.3 44 -24 44 C-24.18233586 39.35043567 -23.84269775 36.23441846 -22 32 C-21.62101562 31.07703125 -21.24203125 30.1540625 -20.8515625 29.203125 C-20.00442535 27.16352091 -19.15256207 25.12587564 -18.296875 23.08984375 C-17.48252643 21.14963376 -16.67879252 19.2048984 -15.890625 17.25390625 C-15.55546875 16.44824219 -15.2203125 15.64257812 -14.875 14.8125 C-14.58367188 14.09707031 -14.29234375 13.38164063 -13.9921875 12.64453125 C-13 11 -13 11 -10 10 C-9.29605388 8.68596724 -8.63654342 7.3479743 -8 6 C-3.53488372 0 -3.53488372 0 0 0 Z " transform="translate(49,40)" style="fill: #F7DA7F;"/><path d="M0 0 C0.625 2.8125 0.625 2.8125 1 6 C0.34 6.99 -0.32 7.98 -1 9 C-4.05697579 8.33150415 -6.71145923 7.27756687 -9.5625 6 C-14.27349789 4.06549865 -18.48806939 3.50470511 -23.54296875 3.21484375 C-26 3 -26 3 -29.0625 1.9375 C-33.98710922 0.36581621 -39.57945727 0.00284589 -44.41796875 1.99609375 C-47.477693 3.18572935 -49.97592091 3.23737017 -53.25 3.3125 C-58.84241202 3.64855197 -62.51776905 4.80775954 -67.1953125 7.84375 C-69 9 -69 9 -72 10 C-72.33 8.68 -72.66 7.36 -73 6 C-73.66 6 -74.32 6 -75 6 C-74.9375 3.6875 -74.9375 3.6875 -74 1 C-71.588987 -0.36989375 -69.61598574 -1.16271103 -67 -2 C-65.47826172 -2.51240234 -65.47826172 -2.51240234 -63.92578125 -3.03515625 C-42.07400616 -10.11604504 -21.37760379 -7.10778197 0 0 Z " transform="translate(131,15)" style="fill: #F19900;"/><path d="M0 0 C5.20483643 1.2071458 7.6672119 4.21175535 10.59375 8.6015625 C11.05487012 13.28961702 11.08373541 15.62159168 8.96875 19.8515625 C5.4493561 23.92665017 2.57747875 26.23420532 -2.78125 27.2265625 C-7.66804988 26.3840108 -10.92284925 24.09345935 -14.40625 20.6015625 C-16.07122271 15.60664437 -16.636217 11.07784157 -14.23046875 6.234375 C-10.22156256 0.8572741 -6.64518816 -0.49291231 0 0 Z " transform="translate(65.40625,58.3984375)" style="fill: #1C0F06;"/><path d="M0 0 C2.63291543 1.01563195 4.59466375 1.86590061 6.1640625 4.26953125 C7.99532673 9.15579553 7.73728298 14.61595625 5.80078125 19.40625 C3.0230735 22.56708986 0.89658258 24.17835632 -3.34765625 24.82421875 C-7.78763801 25.0708844 -11.01602508 25.001086 -14.57421875 22.15625 C-18.09727938 18.27184981 -18.46229546 14.88639875 -18.4375 9.828125 C-17.69783102 5.72940882 -15.07973667 3.13935627 -12.01171875 0.46875 C-8.30162885 -1.38629495 -3.93873788 -1.04013272 0 0 Z " transform="translate(92.01171875,128.53125)" style="fill: #1A120B;"/><path d="M0 0 C2.82655137 2.32132238 4.94029535 4.22162303 5.3203125 7.94140625 C5.41940394 12.85469006 5.2084277 15.91073396 2.1171875 19.953125 C1.4571875 20.943125 0.7971875 21.933125 0.1171875 22.953125 C-4.3809023 24.85616299 -10.39321471 24.4496576 -14.8828125 22.953125 C-18.03378654 20.16854329 -19.59527506 18.47911111 -20.37890625 14.3203125 C-20.58566585 9.72147785 -20.53304523 6.05699566 -17.6328125 2.328125 C-13.109379 -1.57847666 -5.47104334 -3.0419909 0 0 Z " transform="translate(61.8828125,113.046875)" style="fill: #191008;"/><path d="M0 0 C3.23307772 1.61956043 5.36183145 3.7236629 7 7 C7.52705666 10.76469041 7.84897066 14.44300748 5.98828125 17.85546875 C3.90495326 20.38924603 1.72652884 22.18231411 -1 24 C-6.82172174 24.48514348 -10.79856318 23.95767976 -16 21 C-19.46976465 17.30637957 -19.56026185 13.24642769 -19.4296875 8.37890625 C-18.77104285 4.73240999 -16.90538193 3.14444857 -14 1 C-9.80102108 -1.09948946 -4.56001667 -0.54696419 0 0 Z " transform="translate(91,25)" style="fill: #190F0A;"/><path d="M0 0 C12.87 0 25.74 0 39 0 C37.68 1.32 36.36 2.64 35 4 C34.21339525 7.75982637 34.79098991 11.37296974 36 15 C38.01508358 15.73323796 38.01508358 15.73323796 40 16 C39.67 17.32 39.34 18.64 39 20 C38.43152344 19.83757812 37.86304688 19.67515625 37.27734375 19.5078125 C32.63944661 18.47363303 27.75171591 18.61919219 23.125 19.625 C21 20 21 20 18 18 C18.66 17.34 19.32 16.68 20 16 C20.35513379 14.09178939 20.35513379 14.09178939 20.3125 12 C20.32925781 11.29875 20.34601562 10.5975 20.36328125 9.875 C20.24339844 9.25625 20.12351562 8.6375 20 8 C16.51195905 5.67463937 15.09859246 5.66542102 11 6 C8.63045713 6.39260542 8.63045713 6.39260542 7 8 C6.18129815 11.56206661 6.18129815 11.56206661 6 15 C4.125 14.6875 4.125 14.6875 2 14 C0 11 0 11 0 0 Z " transform="translate(25,94)" style="fill: #EDD47A;"/><path d="M0 0 C2.61406365 3.21730911 1.94775517 5.9332849 1.625 10 C1.295 10.66 0.965 11.32 0.625 12 C0.955 12.99 1.285 13.98 1.625 15 C1.15964844 15.6084375 0.69429687 16.216875 0.21484375 16.84375 C-2.63534702 20.70936501 -2.04002507 25.40082661 -1.375 30 C0.43764648 32.56990998 0.43764648 32.56990998 2.625 34 C2.625 34.66 2.625 35.32 2.625 36 C3.285 36 3.945 36 4.625 36 C4.295 37.65 3.965 39.3 3.625 41 C-0.42309035 39.41102996 -2.75063353 36.69374052 -5.625 33.5 C-6.08390625 33.00113281 -6.5428125 32.50226563 -7.015625 31.98828125 C-10.375 28.25897507 -10.375 28.25897507 -10.375 26 C-11.035 26 -11.695 26 -12.375 26 C-12.64054687 25.13117188 -12.90609375 24.26234375 -13.1796875 23.3671875 C-13.70949219 21.63855469 -13.70949219 21.63855469 -14.25 19.875 C-14.59804688 18.73804687 -14.94609375 17.60109375 -15.3046875 16.4296875 C-16.28996533 13.27248336 -17.31772536 10.13372394 -18.375 7 C-15.9 7.99 -15.9 7.99 -13.375 9 C-13.478125 7.906875 -13.58125 6.81375 -13.6875 5.6875 C-13.375 2 -13.375 2 -11.25 0.0625 C-7.10614742 -1.46892378 -4.11034173 -1.7306702 0 0 Z " transform="translate(44.375,100)" style="fill: #F2D77D;"/><path d="M0 0 C0 0.66 0 1.32 0 2 C0.66 2 1.32 2 2 2 C2.66 4.31 3.32 6.62 4 9 C4.66 9 5.32 9 6 9 C6.66 11.31 7.32 13.62 8 16 C8.66 16 9.32 16 10 16 C10.391875 16.928125 10.78375 17.85625 11.1875 18.8125 C13.15728786 22.27660969 14.63073257 23.08771308 18 25 C18 25.99 18 26.98 18 28 C19.65 28.33 21.3 28.66 23 29 C21.68 29.33 20.36 29.66 19 30 C18.67 33.3 18.34 36.6 18 40 C17.67 40 17.34 40 17 40 C16.9175 38.948125 16.835 37.89625 16.75 36.8125 C15.93504195 32.66979658 14.90309057 30.98847559 12 28 C8.96474514 25.97649676 7.80573798 25.67875982 4.3125 25.375 C3.50425781 25.30023438 2.69601563 25.22546875 1.86328125 25.1484375 C1.24839844 25.09945312 0.63351563 25.05046875 0 25 C0 24.67 0 24.34 0 24 C1.65 23.67 3.3 23.34 5 23 C4.01 21.68 3.02 20.36 2 19 C1.67 19.66 1.34 20.32 1 21 C-7.03956273 21.77303488 -7.03956273 21.77303488 -10.5625 18.9375 C-12.32648586 15.33283323 -12.44101505 12.96913548 -12 9 C-11.34 8.01 -10.68 7.02 -10 6 C-10.99 6.33 -11.98 6.66 -13 7 C-12.34 5.68 -11.68 4.36 -11 3 C-10.34 3 -9.68 3 -9 3 C-9 2.34 -9 1.68 -9 1 C-5.57367167 -0.61798838 -3.61944899 -1.34053666 0 0 Z " transform="translate(59,34)" style="fill: #DCA312;"/><path d="M0 0 C6.24229766 2.54315831 10.37596252 8.46885946 14.625 13.5 C15.10195312 14.05558594 15.57890625 14.61117187 16.0703125 15.18359375 C21.03019626 21.03901208 23.34869493 25.31460021 24 33 C23.34 33 22.68 33 22 33 C22.01160156 33.68707031 22.02320313 34.37414062 22.03515625 35.08203125 C22.04417969 35.98308594 22.05320313 36.88414063 22.0625 37.8125 C22.07410156 38.70582031 22.08570313 39.59914062 22.09765625 40.51953125 C22 43 22 43 21 46 C20.34 45.67 19.68 45.34 19 45 C19.33 44.01 19.66 43.02 20 42 C20.34547151 36.64519163 20.46362011 33.3615957 17 29 C13.57905758 26.71937172 12.31812778 26.78074993 8.3125 26.875 C7.31863281 26.89304687 6.32476562 26.91109375 5.30078125 26.9296875 C4.54152344 26.95289062 3.78226563 26.97609375 3 27 C3.33 26.34 3.66 25.68 4 25 C6.97 25 9.94 25 13 25 C11.68 21.37 10.36 17.74 9 14 C8.2884375 15.9490625 8.2884375 15.9490625 7.5625 17.9375 C6.125 21.875 6.125 21.875 5 23 C1.00587961 23.48534132 -2.71822958 23.86707999 -6.125 21.5625 C-7.45279682 17.67395218 -7.01529801 13.95431858 -6 10 C-3.23776722 7.23776722 -0.79293383 7.42143709 3 7 C2.01 4.69 1.02 2.38 0 0 Z " transform="translate(135,34)" style="fill: #D59906;"/><path d="M0 0 C0.66 0 1.32 0 2 0 C2 11.88 2 23.76 2 36 C0.68 36 -0.64 36 -2 36 C-2.495 23.625 -2.495 23.625 -3 11 C-6.3 10.34 -9.6 9.68 -13 9 C-13 9.66 -13 10.32 -13 11 C-13.99 11.495 -13.99 11.495 -15 12 C-15.25719817 14.02543556 -15.50842122 16.05350224 -15.65625 18.08984375 C-16 20 -16 20 -18 22 C-22.55555556 21.44444444 -22.55555556 21.44444444 -24 20 C-24.07325436 17.3013095 -24.09222351 14.63497444 -24.0625 11.9375 C-24.041875 9.318125 -24.02125 6.69875 -24 4 C-16.41 3.67 -8.82 3.34 -1 3 C-0.67 2.01 -0.34 1.02 0 0 Z " transform="translate(156,90)" style="fill: #F1AF02;"/><path d="M0 0 C21.45 0 42.9 0 65 0 C64.67 0.99 64.34 1.98 64 3 C64 2.34 64 1.68 64 1 C57.73 1 51.46 1 45 1 C46.32 2.65 47.64 4.3 49 6 C49.45793285 10.42668417 49.4915904 12.2626144 47 16 C44.01901376 16.96105155 41.12078054 17.16629381 38 17 C35.4375 15.5625 35.4375 15.5625 34 13 C33.43390595 10.03247539 33.60610379 8.10193265 34 5 C35.32 4.01 36.64 3.02 38 2 C25.46 1.67 12.92 1.34 0 1 C0 0.67 0 0.34 0 0 Z " transform="translate(25,93)" style="fill: #1A1305;"/><path d="M0 0 C0.81339844 -0.00515625 1.62679687 -0.0103125 2.46484375 -0.015625 C5.0625 0.25 5.0625 0.25 7.890625 1.203125 C12.17133753 2.61597101 16.47760898 3.00457988 20.93554688 3.4609375 C22.65320366 3.65958973 24.36002279 3.94771058 26.0625 4.25 C26.5575 5.24 26.5575 5.24 27.0625 6.25 C25.0825 6.25 23.1025 6.25 21.0625 6.25 C20.7325 6.91 20.4025 7.57 20.0625 8.25 C18.47926312 8.277193 16.89588938 8.29648306 15.3125 8.3125 C13.98992187 8.32990234 13.98992187 8.32990234 12.640625 8.34765625 C10.0625 8.25 10.0625 8.25 8.0859375 7.75390625 C5.49793864 7.1094046 3.10149943 7.11781941 0.4375 7.125 C-0.52414063 7.12242188 -1.48578125 7.11984375 -2.4765625 7.1171875 C-4.94224769 7.08638917 -4.94224769 7.08638917 -6.9375 8.25 C-6.6075 8.91 -6.2775 9.57 -5.9375 10.25 C-6.96230469 10.23839844 -7.98710938 10.22679687 -9.04296875 10.21484375 C-10.403644 10.20545978 -11.76432124 10.19636023 -13.125 10.1875 C-13.79853516 10.17912109 -14.47207031 10.17074219 -15.16601562 10.16210938 C-18.89184131 10.14393462 -22.3163042 10.35700608 -25.9375 11.25 C-23.54240662 8.35067643 -21.62504757 7.74831724 -17.9375 7.25 C-17.9375 6.59 -17.9375 5.93 -17.9375 5.25 C-20.5775 5.58 -23.2175 5.91 -25.9375 6.25 C-24.05991251 3.75320813 -23.12753694 3.27833005 -19.9765625 2.80859375 C-18.84992188 2.76863281 -17.72328125 2.72867187 -16.5625 2.6875 C-10.69185732 2.46482045 -5.78109263 -0.03653139 0 0 Z " transform="translate(93.9375,14.75)" style="fill: #261B05;"/><path d="M0 0 C0.33 1.98 0.66 3.96 1 6 C0.195625 6.474375 -0.60875 6.94875 -1.4375 7.4375 C-3.84753488 8.76900154 -3.84753488 8.76900154 -5 10 C-5.23961213 14.23314767 -5.32488647 17.36736489 -3 21 C-0.69 21 1.62 21 4 21 C3 23 3 23 0 24 C0 24.66 0 25.32 0 26 C-0.72445312 25.94199219 -1.44890625 25.88398438 -2.1953125 25.82421875 C-8.73693767 25.40337613 -8.73693767 25.40337613 -14.5625 27.9375 C-17.64168015 31.80621352 -18.38959634 35.16939169 -19 40 C-19.66 38.68 -20.32 37.36 -21 36 C-21.66 36 -22.32 36 -23 36 C-21.71350097 31.76030315 -20.10023316 28.15061866 -17.84765625 24.33984375 C-17.23599609 23.29892578 -16.62433594 22.25800781 -15.99414062 21.18554688 C-15.35669922 20.11369141 -14.71925781 19.04183594 -14.0625 17.9375 C-13.11213867 16.32391602 -13.11213867 16.32391602 -12.14257812 14.67773438 C-10.43485035 11.78124132 -8.72095854 8.88864827 -7 6 C-6.21774048 4.6224353 -6.21774048 4.6224353 -5.41967773 3.21704102 C-3.77411772 0.64725073 -3.0524531 0 0 0 Z " transform="translate(93,103)" style="fill: #E5CD77;"/><path d="M0 0 C0.99 0.33 1.98 0.66 3 1 C3 1.66 3 2.32 3 3 C3.66 3 4.32 3 5 3 C5.66 5.31 6.32 7.62 7 10 C7.66 10 8.32 10 9 10 C9.66 12.31 10.32 14.62 11 17 C10.360625 17.12375 9.72125 17.2475 9.0625 17.375 C8.381875 17.58125 7.70125 17.7875 7 18 C6.67 18.66 6.34 19.32 6 20 C5.34 20 4.68 20 4 20 C3.566875 21.2065625 3.566875 21.2065625 3.125 22.4375 C2 25 2 25 0 26 C-0.04898438 25.34773438 -0.09796875 24.69546875 -0.1484375 24.0234375 C-0.71893375 16.81148292 -0.71893375 16.81148292 -3 10 C-5.00136244 8.57944932 -5.00136244 8.57944932 -7 8 C-7 7.34 -7 6.68 -7 6 C-8.32 5.67 -9.64 5.34 -11 5 C-9.39125 4.87625 -9.39125 4.87625 -7.75 4.75 C-3.7261549 3.94523098 -2.51830747 3.12270126 0 0 Z " transform="translate(100,121)" style="fill: #F8DA7B;"/><path d="M0 0 C0.33 0 0.66 0 1 0 C2.40490702 7.45211551 1.86103501 11.57293551 -2 18 C-2.92924495 19.82699007 -3.84575537 21.66050807 -4.75 23.5 C-5.5 25 -6.25 26.5 -7 28 C-9.64 27.67 -12.28 27.34 -15 27 C-15 26.34 -15 25.68 -15 25 C-15.804375 24.731875 -16.60875 24.46375 -17.4375 24.1875 C-18.283125 23.795625 -19.12875 23.40375 -20 23 C-20.33 22.01 -20.66 21.02 -21 20 C-20.34 20 -19.68 20 -19 20 C-18.67 18.35 -18.34 16.7 -18 15 C-13.71 15 -9.42 15 -5 15 C-4.34 13.68 -3.68 12.36 -3 11 C-2.4740625 10.1028125 -2.4740625 10.1028125 -1.9375 9.1875 C-0.6532312 6.19087279 -0.37181126 3.22236424 0 0 Z " transform="translate(67,121)" style="fill: #E9A703;"/><path d="M0 0 C1.9808859 0.01166943 3.96160192 0.10903224 5.9375 0.25 C7.55978516 0.35054687 7.55978516 0.35054687 9.21484375 0.453125 C10.59349609 0.72382813 10.59349609 0.72382813 12 1 C12.66 1.99 13.32 2.98 14 4 C12.78763672 4.18175781 12.78763672 4.18175781 11.55078125 4.3671875 C10.48214844 4.53476563 9.41351563 4.70234375 8.3125 4.875 C7.25675781 5.03742188 6.20101562 5.19984375 5.11328125 5.3671875 C2.03606348 5.89026025 2.03606348 5.89026025 -0.56640625 7.05859375 C-7.36403831 9.68817533 -15.93577285 7.89704472 -23 7 C-23.66 7 -24.32 7 -25 7 C-25.33 7.99 -25.66 8.98 -26 10 C-27.32 9.34 -28.64 8.68 -30 8 C-29.67 6.35 -29.34 4.7 -29 3 C-27.72125 3.04125 -26.4425 3.0825 -25.125 3.125 C-19.85035655 3.13261132 -14.67408076 2.63698158 -9.4375 2.0625 C-8.62748535 1.97564941 -7.8174707 1.88879883 -6.98291016 1.79931641 C-3.17493011 1.68076664 -3.17493011 1.68076664 0 0 Z " transform="translate(103,153)" style="fill: #F2AD02;"/><path d="M0 0 C2.12593655 3.48653594 3.00748711 5.55826078 2.9375 9.6875 C2 13 2 13 0.375 15 C-3.11581787 16.46981805 -5.39148956 15.98413921 -9 15 C-11.55078958 12.77834456 -11.93332671 11.39170557 -12.5 8.0625 C-11.32174016 0.84565848 -6.67897455 -0.65480143 0 0 Z " transform="translate(41,70)" style="fill: #221C0C;"/><path d="M0 0 C4.22446305 0.10866786 4.22446305 0.10866786 6.625 2 C8.24263332 6.09800441 7.97794553 9.10096703 6.625 13.25 C4.19662304 15.75196414 3.44159361 15.77816063 0.0625 15.9375 C-2.82920679 15.74911519 -4.13706674 15.57823427 -6.5625 13.9375 C-7.89029682 10.04895218 -7.45279801 6.32931858 -6.4375 2.375 C-4.03403621 -0.02846379 -3.29849805 0.05416253 0 0 Z " transform="translate(135.4375,41.625)" style="fill: #201A0D;"/><path d="M0 0 C7.22891566 -0.48192771 7.22891566 -0.48192771 10.5 1.5625 C12.58392818 4.94888329 12.55802097 7.09385318 12 11 C10.4375 13.4375 10.4375 13.4375 8 15 C4.09385318 15.55802097 1.94888329 15.58392818 -1.4375 13.5 C-3.71029038 9.86353539 -3.28281164 7.24217465 -3 3 C-2.01 2.67 -1.02 2.34 0 2 C0 1.34 0 0.68 0 0 Z " transform="translate(90,55)" style="fill: #1D1606;"/><path d="M0 0 C2.4375 1.5625 2.4375 1.5625 4 4 C4.55802097 7.90614682 4.58392818 10.05111671 2.5 13.4375 C-1.27828899 15.79893062 -3.57790439 15.56153595 -8 15 C-10.91781637 12.72045596 -10.97820387 11.17436907 -11.4375 7.5 C-11 4 -11 4 -9.4375 1.5625 C-6.05782196 -0.60396028 -3.94016013 -0.56288002 0 0 Z " transform="translate(90,133)" style="fill: #D94946;"/><path d="M0 0 C2.09940925 2.58388831 2.24944793 4.77757845 2.07421875 8.05859375 C1.625 10 1.625 10 -0.5 12.5 C-3.86537356 14.25584708 -5.63515491 14.63656938 -9.375 14 C-11.75 12.5 -11.75 12.5 -13.375 10 C-14.02509956 6.98037869 -13.82930809 5.18015664 -13.375 2 C-9.42374641 -1.7188269 -4.92892479 -2.07533675 0 0 Z " transform="translate(44.375,100)" style="fill: #161107;"/><path d="M0 0 C2.77255487 1.99055222 3.79479457 3.11077645 4.5625 6.4375 C3.71579734 10.29470102 2.16583303 11.69158008 -1 14 C-4.07476455 14.74775403 -5.74683968 14.52470328 -9 14 C-11.0625 11.9375 -11.0625 11.9375 -12 9 C-11.93510145 5.2358841 -11.77538789 2.95432355 -9.375 0 C-5.87599825 -1.47326389 -3.62561724 -0.97114747 0 0 Z " transform="translate(89,30)" style="fill: #E04D4A;"/><path d="M0 0 C2.4375 1.5625 2.4375 1.5625 4 4 C4.56288002 7.94016013 4.60396028 10.05782196 2.4375 13.4375 C-0.94217804 15.60396028 -3.05983987 15.56288002 -7 15 C-9.4375 13.4375 -9.4375 13.4375 -11 11 C-11.56288002 7.05983987 -11.60396028 4.94217804 -9.4375 1.5625 C-6.05782196 -0.60396028 -3.94016013 -0.56288002 0 0 Z " transform="translate(58,117)" style="fill: #E44E4B;"/><path d="M0 0 C2.875 1.5625 2.875 1.5625 5 4 C5.63210717 7.93311127 5.60020266 10.02467068 3.5 13.4375 C-0.27828899 15.79893062 -2.57790439 15.56153595 -7 15 C-9.91781637 12.72045596 -9.97820387 11.17436907 -10.4375 7.5 C-10 4 -10 4 -8.375 1.5625 C-5.26456309 -0.48384007 -3.66322334 -0.59807728 0 0 Z " transform="translate(97,109)" style="fill: #1A1407;"/><path d="M0 0 C2.4375 1.0625 2.4375 1.0625 4 3 C4.60449096 7.08031397 4.37991938 9.28575157 2.4375 12.9375 C0 15 0 15 -3.5625 15.5625 C-7 15 -7 15 -8.9375 13.5 C-10.53330773 9.74515828 -10.3886759 7.08109691 -10 3 C-7.82867609 -1.08719794 -4.198293 -0.44192558 0 0 Z " transform="translate(147,65)" style="fill: #E44E4B;"/><path d="M0 0 C1.625 1.9375 1.625 1.9375 2.1875 5.3125 C1.625 8.9375 1.625 8.9375 -0.4375 11.9375 C-3.375 13.9375 -3.375 13.9375 -7 14 C-10.375 12.9375 -10.375 12.9375 -12.375 11.375 C-13.96204465 7.50657867 -13.35805619 5.00079892 -12.375 0.9375 C-8.90898393 -2.14340318 -4.06676737 -1.8193433 0 0 Z " transform="translate(118.375,28.0625)" style="fill: #181102;"/><path d="M0 0 C4.95 0 9.9 0 15 0 C15 1.32 15 2.64 15 4 C13.68 4.33 12.36 4.66 11 5 C11 5.66 11 6.32 11 7 C10.01 7.495 10.01 7.495 9 8 C8.74280183 10.02543556 8.49157878 12.05350224 8.34375 14.08984375 C8 16 8 16 6 18 C1.44444444 17.44444444 1.44444444 17.44444444 0 16 C-0.07319621 13.30345146 -0.09242537 10.63308542 -0.0625 7.9375 C-0.05798828 7.17888672 -0.05347656 6.42027344 -0.04882812 5.63867188 C-0.0370068 3.75908129 -0.01907078 1.87953101 0 0 Z " transform="translate(132,94)" style="fill: #EBD37A;"/><path d="M0 0 C2 2 2 2 2.375 5.875 C2.28294676 8.85319304 2.06485821 9.89622686 0.4375 12.5 C-2.93424177 14.57491801 -5.11590535 14.56495922 -9 14 C-11 12.5625 -11 12.5625 -12 10 C-12.12741139 6.88119082 -12.04405912 3.95531489 -11 1 C-7.27392936 -1.62175546 -4.33181044 -0.96262454 0 0 Z " transform="translate(68,65)" style="fill: #E34E4B;"/><path d="M0 0 C2.6923481 2.18753283 2.93936827 3.58423955 3.4375 7 C3 10 3 10 1.5 12.375 C-2.26897129 14.82483134 -4.54334931 14.5659239 -9 14 C-11.0625 12.5 -11.0625 12.5 -12 10 C-12.07495389 7.08256407 -11.657745 4.91287069 -11 2 C-7.2237362 -0.5175092 -4.43646723 -0.73941121 0 0 Z " transform="translate(116,139)" style="fill: #171001;"/><path d="M0 0 C2.375 1.0625 2.375 1.0625 4 3 C4.46913089 7.37855495 4.46943529 9.29584707 2 13 C1.34 13 0.68 13 0 13 C0 13.66 0 14.32 0 15 C-6.40096618 15.48309179 -6.40096618 15.48309179 -8.9375 13.4375 C-10.41282332 10.05293473 -10.45674603 7.65396822 -10 4 C-7.24846472 -0.12730291 -4.82246105 -0.70327557 0 0 Z " transform="translate(122,69)" style="fill: #171206;"/><path d="M0 0 C0.66 0.33 1.32 0.66 2 1 C2 1.66 2 2.32 2 3 C4.97 3 7.94 3 11 3 C11 3.33 11 3.66 11 4 C26.18 4 41.36 4 57 4 C57.33 3.34 57.66 2.68 58 2 C60 4 60 4 60 7 C38.55 7 17.1 7 -5 7 C-5 5.35 -5 3.7 -5 2 C-3.35 2 -1.7 2 0 2 C0 1.34 0 0.68 0 0 Z " transform="translate(30,82)" style="fill: #A77A00;"/><path d="M0 0 C2.375 1 2.375 1 4 3 C4.66300779 6.57577233 4.65930485 9.75895557 2.9375 13 C-0.14126742 14.58904125 -2.60155579 14.35773097 -6 14 C-8.4375 12.9375 -8.4375 12.9375 -10 11 C-10.57491549 7.04745604 -10.61372366 4.92058549 -8.375 1.5625 C-5.30182885 -0.45932313 -3.61752119 -0.52755517 0 0 Z " transform="translate(58,40)" style="fill: #281A01;"/><path d="M0 0 C-3.75 3 -3.75 3 -6 3 C-7.81643761 6.11389304 -8.2719038 8.40777709 -8.25 12 C-8.25515625 12.845625 -8.2603125 13.69125 -8.265625 14.5625 C-7.8106303 18.73774553 -6.0570463 21.220867 -3 24 C-9.11341145 23.16090431 -9.11341145 23.16090431 -11.578125 19.93359375 C-15 13.80765086 -15 13.80765086 -15 11 C-15.99 10.67 -16.98 10.34 -18 10 C-18.33 8.35 -18.66 6.7 -19 5 C-13.40324584 0.07485634 -7.10090633 -0.24915461 0 0 Z " transform="translate(81,24)" style="fill: #DEC673;"/><path d="M0 0 C1.74627478 2.61941217 2.38722388 4.03824877 3 7 C3.66 7 4.32 7 5 7 C5.66 9.31 6.32 11.62 7 14 C7.66 14 8.32 14 9 14 C9.8125 16.6875 9.8125 16.6875 10 20 C7.33677443 23.6082411 5.16146943 25.25336859 0.79296875 25.92578125 C-0.74013878 26.07711805 -2.27565609 26.20557792 -3.8125 26.3125 C-4.60076172 26.38533203 -5.38902344 26.45816406 -6.20117188 26.53320312 C-8.13240334 26.70876962 -10.06607397 26.85714108 -12 27 C-11.67 26.34 -11.34 25.68 -11 25 C-8.93359375 24.3671875 -8.93359375 24.3671875 -6.4375 23.875 C-5.61121094 23.70742187 -4.78492187 23.53984375 -3.93359375 23.3671875 C-3.29550781 23.24601562 -2.65742187 23.12484375 -2 23 C-2 22.67 -2 22.34 -2 22 C-4.31 21.67 -6.62 21.34 -9 21 C-9 20.67 -9 20.34 -9 20 C-7.741875 19.896875 -6.48375 19.79375 -5.1875 19.6875 C-2.68202542 19.35934935 -1.18882396 19.11211423 1 17.8125 C2.49058721 15.11081068 2.31547795 13.02858829 2 10 C1.34 9.01 0.68 8.02 0 7 C-2.43693311 6.63583953 -2.43693311 6.63583953 -5.125 6.8125 C-6.03507812 6.83957031 -6.94515625 6.86664063 -7.8828125 6.89453125 C-8.58148438 6.92933594 -9.28015625 6.96414062 -10 7 C-9.67 6.34 -9.34 5.68 -9 5 C-6.93359375 4.5859375 -6.93359375 4.5859375 -4.4375 4.375 C-3.61121094 4.30023438 -2.78492187 4.22546875 -1.93359375 4.1484375 C-0.97646484 4.07496094 -0.97646484 4.07496094 0 4 C0 2.68 0 1.36 0 0 Z " transform="translate(116,133)" style="fill: #CB9100;"/><path d="M0 0 C5.25322146 0.4842355 10.52658073 0.33112417 15.796875 0.2578125 C16.126875 1.9078125 16.456875 3.5578125 16.796875 5.2578125 C12.22983172 7.9157684 7.95177387 7.67827733 2.796875 7.2578125 C0.046875 6.3828125 0.046875 6.3828125 -2.203125 5.2578125 C-4.19932666 4.57985722 -6.19851201 3.91047719 -8.203125 3.2578125 C-8.203125 2.2678125 -8.203125 1.2778125 -8.203125 0.2578125 C-5.36925073 -1.15912463 -3.04981299 -0.38870166 0 0 Z " transform="translate(86.203125,159.7421875)" style="fill: #271900;"/><path d="M0 0 C2.0959986 0.27876518 4.20262611 0.48588744 6.3125 0.625 C7.91544922 0.73714844 7.91544922 0.73714844 9.55078125 0.8515625 C10.35902344 0.90054688 11.16726562 0.94953125 12 1 C12 1.33 12 1.66 12 2 C-5.16 2 -22.32 2 -40 2 C-39.67 1.01 -39.34 0.02 -39 -1 C-34.24985631 -1.19291859 -29.49946652 -1.371533 -24.74829102 -1.53710938 C-23.13323678 -1.59538536 -21.51831677 -1.65751749 -19.90356445 -1.72363281 C-17.57788542 -1.81817843 -15.25207101 -1.8986889 -12.92578125 -1.9765625 C-12.20787918 -2.00875885 -11.48997711 -2.0409552 -10.75032043 -2.0741272 C-6.63746935 -2.19607378 -3.71694741 -1.736336 0 0 Z " transform="translate(141,85)" style="fill: #FAB70D;"/><path d="M0 0 C0.33 0.66 0.66 1.32 1 2 C1.804375 1.505 1.804375 1.505 2.625 1 C5.5391061 -0.22699204 7.86867708 -0.14233286 11 0 C11 0.33 11 0.66 11 1 C8.36 1.66 5.72 2.32 3 3 C2.94552953 4.41623216 2.90699492 5.83308191 2.875 7.25 C2.84019531 8.43335937 2.84019531 8.43335937 2.8046875 9.640625 C2.88503237 12.38989726 2.88503237 12.38989726 5 16 C0.71 16 -3.58 16 -8 16 C-6.49947591 11.49842772 -5.29497484 8.51800301 -2.875 4.625 C-2.06675781 3.31402344 -2.06675781 3.31402344 -1.2421875 1.9765625 C-0.83226563 1.32429688 -0.42234375 0.67203125 0 0 Z " transform="translate(110,68)" style="fill: #CEB767;"/><path d="M0 0 C4.75 0.75 4.75 0.75 7 3 C7.71408334 4.98356483 8.38617742 6.98315437 9 9 C6.36 9.33 3.72 9.66 1 10 C0.01 12.97 -0.98 15.94 -2 19 C-2.33 19 -2.66 19 -3 19 C-3 16.69 -3 14.38 -3 12 C-3.66 12 -4.32 12 -5 12 C-5.33 13.32 -5.66 14.64 -6 16 C-6.66 16 -7.32 16 -8 16 C-6.42986223 10.03347646 -3.24970218 5.17090975 0 0 Z " transform="translate(130,33)" style="fill: #D6BB63;"/><path d="M0 0 C3.3 0 6.6 0 10 0 C10 0.66 10 1.32 10 2 C11.0725 2.103125 12.145 2.20625 13.25 2.3125 C16.85820872 2.97400493 18.36395023 3.57483421 21 6 C20.35550393 9.01217112 19.34977818 11.51655836 17.9375 14.25 C17.57527344 14.95640625 17.21304688 15.6628125 16.83984375 16.390625 C16.56269531 16.92171875 16.28554687 17.4528125 16 18 C15.01 17.67 14.02 17.34 13 17 C13.33 16.01 13.66 15.02 14 14 C14.33338596 10.45812169 14.33338596 10.45812169 14 7 C10.52253081 4.6816872 9.07109225 4.83037116 5 5 C4.01 5 3.02 5 2 5 C2.99 3.68 3.98 2.36 5 1 C3.35 1 1.7 1 0 1 C0 0.67 0 0.34 0 0 Z " transform="translate(105,23)" style="fill: #DEA000;"/><path d="M0 0 C0.66 0.33 1.32 0.66 2 1 C2 3.64 2 6.28 2 9 C2.75925781 8.90460938 3.51851562 8.80921875 4.30078125 8.7109375 C5.29464844 8.60007812 6.28851563 8.48921875 7.3125 8.375 C8.29863281 8.25898437 9.28476562 8.14296875 10.30078125 8.0234375 C13 8 13 8 16 10 C20.41500735 10.59432791 23.12759298 10.24424212 26.75 7.75 C29.27138055 5.76122568 31.27580526 3.73842695 33 1 C32.73700375 4.76961289 32.25221459 6.68214409 29.8762207 9.67651367 C26.3353325 12.53693579 24.66496706 12.58733408 20.16796875 12.48828125 C18.87568359 12.47216797 17.58339844 12.45605469 16.25195312 12.43945312 C14.89711843 12.39768274 13.54230072 12.35535809 12.1875 12.3125 C10.81319134 12.28740069 9.43883884 12.26459036 8.06445312 12.24414062 C4.70852024 12.18526461 1.3548191 12.1030642 -2 12 C-1.67257813 11.25363281 -1.34515625 10.50726563 -1.0078125 9.73828125 C0.22804287 6.38039514 0.13921359 3.54994652 0 0 Z " transform="translate(43,74)" style="fill: #E3B02C;"/><path d="M0 0 C2.79872437 2.52788007 4.45773019 4.20411134 5 8 C5.66 8 6.32 8 7 8 C7.66 10.31 8.32 12.62 9 15 C9.66 15 10.32 15 11 15 C11.33 16.32 11.66 17.64 12 19 C11.34 19 10.68 19 10 19 C9.67 20.65 9.34 22.3 9 24 C8.34 23.67 7.68 23.34 7 23 C7.0825 21.906875 7.165 20.81375 7.25 19.6875 C7.39873002 16.00924962 7.39873002 16.00924962 5.1875 14.125 C2.92023801 12.88860105 2.92023801 12.88860105 0 12 C-0.33 10.02 -0.66 8.04 -1 6 C-1.99 6.33 -2.98 6.66 -4 7 C-3.43628586 3.73045798 -2.50037734 2.17424117 0 0 Z " transform="translate(94,97)" style="fill: #E3A405;"/><path d="M0 0 C6.25 -0.48076923 6.25 -0.48076923 9.4375 1.5625 C11.60396028 4.94217804 11.56288002 7.05983987 11 11 C9.4375 13.4375 9.4375 13.4375 7 15 C1.02941176 15.51470588 1.02941176 15.51470588 -2 14 C-2 13.34 -2 12.68 -2 12 C-1.05125 11.566875 -0.1025 11.13375 0.875 10.6875 C4.20041937 9.20697799 4.20041937 9.20697799 6 6 C6 4.68 6 3.36 6 2 C3.69 2 1.38 2 -1 2 C-0.67 1.34 -0.34 0.68 0 0 Z " transform="translate(51,117)" style="fill: #C32E2E;"/><path d="M0 0 C1.9375 0.5625 1.9375 0.5625 4 2 C5.0625 5.3125 5.0625 5.3125 5 9 C3.0625 11.9375 3.0625 11.9375 0 14 C-2.80809291 14.40411669 -5.13998163 14.24237444 -8 14 C-6.84122802 11.1557415 -5.70724153 9.72152243 -3.4375 7.5625 C-0.88789526 4.8821463 -0.30937021 3.60931917 0 0 Z " transform="translate(88,30)" style="fill: #C92F2E;"/><path d="M0 0 C0.33 1.98 0.66 3.96 1 6 C-2.3 6.33 -5.6 6.66 -9 7 C-9.66 9.97 -10.32 12.94 -11 16 C-11.33 16 -11.66 16 -12 16 C-12.25 9.375 -12.25 9.375 -10 6 C-10.99 6.33 -11.98 6.66 -13 7 C-12.34 5.68 -11.68 4.36 -11 3 C-10.34 3 -9.68 3 -9 3 C-9 2.34 -9 1.68 -9 1 C-5.57367167 -0.61798838 -3.61944899 -1.34053666 0 0 Z " transform="translate(59,34)" style="fill: #E2AC1F;"/><path d="M0 0 C1.32 0.66 2.64 1.32 4 2 C4.31087045 5.96359827 4.32482417 8.38933056 2.4375 11.9375 C0 14 0 14 -3.625 14.5 C-4.73875 14.335 -5.8525 14.17 -7 14 C-7.66 13.01 -8.32 12.02 -9 11 C-8.236875 10.7525 -7.47375 10.505 -6.6875 10.25 C-3.67295684 8.8478869 -2.63472774 7.86077355 -1 5 C-0.28566879 2.35065178 -0.28566879 2.35065178 0 0 Z " transform="translate(147,66)" style="fill: #C32D2C;"/><path d="M0 0 C1.32 0.66 2.64 1.32 4 2 C4.48192771 9.22891566 4.48192771 9.22891566 2.4375 12.5 C-0.82028019 14.50478781 -3.24782833 14.28862859 -7 14 C-7.33 13.01 -7.66 12.02 -8 11 C-6.68 11 -5.36 11 -4 11 C-3.34 9.68 -2.68 8.36 -2 7 C-1.34 7 -0.68 7 0 7 C0 4.69 0 2.38 0 0 Z " transform="translate(66,65)" style="fill: #C72E2E;"/><path d="M0 0 C21.45 0 42.9 0 65 0 C64.67 0.99 64.34 1.98 64 3 C64 2.34 64 1.68 64 1 C57.73 1 51.46 1 45 1 C45 1.66 45 2.32 45 3 C42.69 3 40.38 3 38 3 C38 2.67 38 2.34 38 2 C25.46 1.67 12.92 1.34 0 1 C0 0.67 0 0.34 0 0 Z " transform="translate(25,93)" style="fill: #7F6B33;"/><path d="M0 0 C3 1 3 1 4 3 C4.35173852 6.79877599 4.52701444 9.14360153 2.5 12.4375 C-1.13646461 14.71029038 -3.75782535 14.28281164 -8 14 C-8.33 13.34 -8.66 12.68 -9 12 C-7.576875 11.6596875 -7.576875 11.6596875 -6.125 11.3125 C-2.87024813 10.31968198 -2.87024813 10.31968198 -1.6875 7.6875 C-1.03409499 5.1332804 -0.44549452 2.59871802 0 0 Z " transform="translate(90,134)" style="fill: #C22C2C;"/><path d="M0 0 C0.33 0 0.66 0 1 0 C1.33 2.97 1.66 5.94 2 9 C3.32 7.35 4.64 5.7 6 4 C5.93489583 5.953125 5.86979167 7.90625 5.8046875 9.859375 C5.90751009 12.42184168 5.90751009 12.42184168 8 16 C3.71 15.67 -0.58 15.34 -5 15 C-4.360625 14.01 -3.72125 13.02 -3.0625 12 C-0.74593674 7.99717514 -0.32145895 4.58078998 0 0 Z " transform="translate(99,137)" style="fill: #CCB567;"/><path d="M0 0 C0.66 1.32 1.32 2.64 2 4 C3.32 3.67 4.64 3.34 6 3 C6.33 3.99 6.66 4.98 7 6 C7.99 6.66 8.98 7.32 10 8 C10 8.66 10 9.32 10 10 C5.38 10 0.76 10 -4 10 C-4 9.34 -4 8.68 -4 8 C-3.34 8 -2.68 8 -2 8 C-1.34 5.36 -0.68 2.72 0 0 Z " transform="translate(126,74)" style="fill: #E7CB71;"/><path d="M0 0 C0.99 0.33 1.98 0.66 3 1 C3 8.59 3 16.18 3 24 C0.22957891 21.22957891 0.60203894 19.23466195 0.375 15.375 C0.30023438 14.18648437 0.22546875 12.99796875 0.1484375 11.7734375 C0.09945312 10.85820313 0.05046875 9.94296875 0 9 C-1.98 9.99 -1.98 9.99 -4 11 C-3.525625 10.29875 -3.05125 9.5975 -2.5625 8.875 C-0.91260143 5.83918663 -0.39631536 3.40831214 0 0 Z " transform="translate(146,104)" style="fill: #B4B4B4;"/><path d="M0 0 C0.33 1.98 0.66 3.96 1 6 C-1.67478244 7.6627026 -3.9995144 8.99983813 -7 10 C-8.21869929 12.50447516 -8.21869929 12.50447516 -9 15 C-9.66 15 -10.32 15 -11 15 C-9.564062 9.77840726 -7.22421694 5.329958 -4 1 C-2 0 -2 0 0 0 Z " transform="translate(93,103)" style="fill: #A59556;"/><path d="M0 0 C0.33 0 0.66 0 1 0 C2.40490702 7.45211551 1.86103501 11.57293551 -2 18 C-2.92924495 19.82699007 -3.84575537 21.66050807 -4.75 23.5 C-5.5 25 -6.25 26.5 -7 28 C-7.66 27.67 -8.32 27.34 -9 27 C-7 23 -5 19 -3 15 C-3.66 15 -4.32 15 -5 15 C-3 11 -3 11 -1.9375 9.1875 C-0.6532312 6.19087279 -0.37181126 3.22236424 0 0 Z " transform="translate(67,121)" style="fill: #946A00;"/><path d="M0 0 C-0.33 0.99 -0.66 1.98 -1 3 C-2.32 3 -3.64 3 -5 3 C-5 3.66 -5 4.32 -5 5 C-7.64 5.33 -10.28 5.66 -13 6 C-13 5.01 -13 4.02 -13 3 C-13.66 2.67 -14.32 2.34 -15 2 C-9.75614911 0.2520497 -5.52677733 -0.19392201 0 0 Z " transform="translate(116,159)" style="fill: #0F0900;"/><path d="M0 0 C3.44165927 4.22385456 5 7.50060584 5 13 C3.02 13 1.04 13 -1 13 C-2.51403812 8.15507803 -1.36602172 4.7408989 0 0 Z " transform="translate(143,46)" style="fill: #F2D16B;"/><path d="M0 0 C1.78409802 3.06246747 2.22880021 5.22079273 2.125 8.75 C2.10695313 9.54921875 2.08890625 10.3484375 2.0703125 11.171875 C2.03550781 12.07679687 2.03550781 12.07679687 2 13 C0.35 13 -1.3 13 -3 13 C-3.17791204 8.46324303 -3.0461125 5.092225 -1 1 C-0.67 0.67 -0.34 0.34 0 0 Z " transform="translate(28,71)" style="fill: #EAD175;"/><path d="M0 0 C0 0.33 0 0.66 0 1 C-3.3 1 -6.6 1 -10 1 C-10.66 2.32 -11.32 3.64 -12 5 C-14.125 6.25 -14.125 6.25 -16 7 C-16.14975239 14.05651252 -16.14975239 14.05651252 -15 21 C-17 20 -17 20 -18 17 C-18.71867713 12.85943971 -18.71850153 9.44655125 -16.82421875 5.6328125 C-12.10356357 -0.69894934 -7.53600863 -0.98118015 0 0 Z " transform="translate(68,59)" style="fill: #584D2B;"/><path d="M0 0 C1 2 1 2 0 5 C0.66 5.33 1.32 5.66 2 6 C1.360625 6.680625 0.72125 7.36125 0.0625 8.0625 C-2.3258493 11.46408839 -2.67877153 13.90433701 -3 18 C-3.66 16.68 -4.32 15.36 -5 14 C-5.66 14 -6.32 14 -7 14 C-5.53967505 8.68972746 -3.01679014 4.53669968 0 0 Z " transform="translate(77,125)" style="fill: #C5B267;"/><path d="M0 0 C0.66 0.33 1.32 0.66 2 1 C2 3.64 2 6.28 2 9 C-1.07560262 10.76258433 -3.53990472 11.31278359 -7.0625 11.5625 C-9.996066 11.77865749 -12.18596973 12.06198991 -15 13 C-15.33 12.34 -15.66 11.68 -16 11 C-14.68 10.01 -13.36 9.02 -12 8 C-11.67 8.33 -11.34 8.66 -11 9 C-6.36339535 9.43808987 -6.36339535 9.43808987 -2.125 7.875 C-0.59569177 5.32615294 -0.32529059 2.92761527 0 0 Z " transform="translate(102,60)" style="fill: #D59B09;"/><path d="M0 0 C4.62 0 9.24 0 14 0 C13.67 0.66 13.34 1.32 13 2 C10.36 2 7.72 2 5 2 C4.67 3.65 4.34 5.3 4 7 C1.525 6.01 1.525 6.01 -1 5 C-0.67 3.35 -0.34 1.7 0 0 Z " transform="translate(74,156)" style="fill: #FBB712;"/><path d="M0 0 C1.74627478 2.61941217 2.38722388 4.03824877 3 7 C3.66 7 4.32 7 5 7 C5.6875 8.75 5.6875 8.75 6 11 C4.5625 13.25 4.5625 13.25 3 15 C2.690625 13.865625 2.38125 12.73125 2.0625 11.5625 C1.37075469 8.21224901 1.37075469 8.21224901 0 7 C-1.68608966 6.92794489 -3.37500659 6.91613932 -5.0625 6.9375 C-5.98160156 6.94652344 -6.90070313 6.95554688 -7.84765625 6.96484375 C-8.55792969 6.97644531 -9.26820312 6.98804688 -10 7 C-9.67 6.34 -9.34 5.68 -9 5 C-6.93359375 4.5859375 -6.93359375 4.5859375 -4.4375 4.375 C-3.61121094 4.30023438 -2.78492187 4.22546875 -1.93359375 4.1484375 C-0.97646484 4.07496094 -0.97646484 4.07496094 0 4 C0 2.68 0 1.36 0 0 Z " transform="translate(116,133)" style="fill: #B9890C;"/><path d="M0 0 C3.38552696 1.45094013 5.68132949 3.1216504 8 6 C8.75 9.25 8.75 9.25 9 12 C5.20846545 10.73615515 4.24876826 9.26434102 2 6 C0.75 2.6875 0.75 2.6875 0 0 Z " transform="translate(135,34)" style="fill: #F5B411;"/><path d="M0 0 C1.98 0.99 3.96 1.98 6 3 C5.979375 3.969375 5.95875 4.93875 5.9375 5.9375 C5.92849192 10.33344515 6.44690406 14.64436949 7 19 C5.14731313 16.22096969 4.39166552 14.34225139 3.5 11.1875 C2.41515181 7.42632581 1.26742219 3.70477256 0 0 Z " transform="translate(26,107)" style="fill: #B9A660;"/><path d="M0 0 C2.7839183 1.39195915 2.97898997 3.15575779 4 6 C-1.03511899 7.0070238 -4.23947038 6.97387813 -9 5 C-9 4.67 -9 4.34 -9 4 C-6.36 3.67 -3.72 3.34 -1 3 C-0.67 2.01 -0.34 1.02 0 0 Z " transform="translate(61,52)" style="fill: #FCE281;"/><path d="M0 0 C0.33 0 0.66 0 1 0 C1.66 3.3 2.32 6.6 3 10 C1.68 10 0.36 10 -1 10 C-1.99 8.02 -2.98 6.04 -4 4 C-3.34 4 -2.68 4 -2 4 C-1.34 2.68 -0.68 1.36 0 0 Z " transform="translate(86,60)" style="fill: #DBC571;"/><path d="M0 0 C0.66 0 1.32 0 2 0 C2 0.66 2 1.32 2 2 C4.64 2 7.28 2 10 2 C10 2.33 10 2.66 10 3 C7.36 3.33 4.72 3.66 2 4 C1.34 6.97 0.68 9.94 0 13 C-0.33 13 -0.66 13 -1 13 C-1.25 6.375 -1.25 6.375 1 3 C0.01 3.33 -0.98 3.66 -2 4 C-1.34 2.68 -0.68 1.36 0 0 Z " transform="translate(48,37)" style="fill: #8D7B41;"/><path d="M0 0 C0.33 0.66 0.66 1.32 1 2 C-0.02480469 1.98839844 -1.04960938 1.97679687 -2.10546875 1.96484375 C-3.466144 1.95545978 -4.82682124 1.94636023 -6.1875 1.9375 C-6.86103516 1.92912109 -7.53457031 1.92074219 -8.22851562 1.91210938 C-11.95434131 1.89393462 -15.3788042 2.10700608 -19 3 C-17.17034042 0.64486725 -16.20021628 0.03942374 -13.22265625 -0.546875 C-11.65837891 -0.64742187 -11.65837891 -0.64742187 -10.0625 -0.75 C-9.02222656 -0.82734375 -7.98195313 -0.9046875 -6.91015625 -0.984375 C-4.33159964 -0.9982196 -2.40016504 -0.91328786 0 0 Z " transform="translate(87,23)" style="fill: #73653A;"/><path d="M0 0 C1.74627478 2.61941217 2.38722388 4.03824877 3 7 C3.66 7 4.32 7 5 7 C5.33 8.32 5.66 9.64 6 11 C5.34 11 4.68 11 4 11 C3.67 12.65 3.34 14.3 3 16 C2.34 15.67 1.68 15.34 1 15 C1.04125 13.906875 1.0825 12.81375 1.125 11.6875 C1.32074666 7.91107771 1.32074666 7.91107771 -1 5 C-0.625 2.3125 -0.625 2.3125 0 0 Z " transform="translate(100,105)" style="fill: #BC8902;"/><path d="M0 0 C3.3 0 6.6 0 10 0 C10 1.32 10 2.64 10 4 C7.36 4.66 4.72 5.32 2 6 C2.99 4.35 3.98 2.7 5 1 C3.35 1 1.7 1 0 1 C0 0.67 0 0.34 0 0 Z " transform="translate(105,23)" style="fill: #A1904F;"/><path d="M0 0 C5.28 0.33 10.56 0.66 16 1 C16 1.33 16 1.66 16 2 C14.98679687 2.09087891 14.98679687 2.09087891 13.953125 2.18359375 C13.06109375 2.26738281 12.1690625 2.35117188 11.25 2.4375 C10.36828125 2.51871094 9.4865625 2.59992188 8.578125 2.68359375 C6.30649548 2.96238465 4.20148177 3.38790577 2 4 C1.34 2.68 0.68 1.36 0 0 Z " transform="translate(70,94)" style="fill: #EEBE30;"/><path d="M0 0 C1 3 1 3 0.29296875 4.7890625 C-0.07183594 5.39492187 -0.43664062 6.00078125 -0.8125 6.625 C-1.34810547 7.54152344 -1.34810547 7.54152344 -1.89453125 8.4765625 C-3 10 -3 10 -5 11 C-5.99 10.01 -6.98 9.02 -8 8 C-7.05125 7.4225 -6.1025 6.845 -5.125 6.25 C-2.23865902 4.17183449 -1.15904259 3.24531925 0 0 Z " transform="translate(75,75)" style="fill: #CBA73E;"/><path d="M0 0 C2.0625 0.4375 2.0625 0.4375 4 1 C2.68 1.33 1.36 1.66 0 2 C-0.33 5.3 -0.66 8.6 -1 12 C-1.33 12 -1.66 12 -2 12 C-2.12375 10.9275 -2.2475 9.855 -2.375 8.75 C-2.89643936 5.62136385 -3.40088254 3.66519576 -5 1 C-3.68 1 -2.36 1 -1 1 C-0.67 0.67 -0.34 0.34 0 0 Z " transform="translate(78,62)" style="fill: #A47C0E;"/><path d="M0 0 C1.32 0.33 2.64 0.66 4 1 C3.67 1.66 3.34 2.32 3 3 C3.99 3.33 4.98 3.66 6 4 C5 5 5 5 1.625 5.125 C-2 5 -2 5 -5 4 C-4.67 3.34 -4.34 2.68 -4 2 C-2.35 2.33 -0.7 2.66 1 3 C0.67 2.01 0.34 1.02 0 0 Z " transform="translate(134,112)" style="fill: #2C2C29;"/><path d="M0 0 C0 0.33 0 0.66 0 1 C-0.928125 1.268125 -1.85625 1.53625 -2.8125 1.8125 C-6.50505047 3.18050831 -6.50505047 3.18050831 -9 6 C-9.72197162 8.60611077 -9.72197162 8.60611077 -10 11 C-10.33 11 -10.66 11 -11 11 C-11.42969812 5.75768289 -11.42969812 5.75768289 -11 3 C-7.58538355 -0.21375666 -4.554237 -0.31773746 0 0 Z " transform="translate(42,99)" style="fill: #3E3720;"/><path d="M0 0 C1.98 0.99 1.98 0.99 4 2 C4.75 5.625 4.75 5.625 5 9 C4.01 9.33 3.02 9.66 2 10 C1.34 6.7 0.68 3.4 0 0 Z " transform="translate(88,30)" style="fill: #A72525;"/><path d="M0 0 C-1.36983503 3.16115776 -1.9890638 3.9927092 -5 6 C-5.57993699 8.19454681 -5.57993699 8.19454681 -5.6875 10.625 C-5.75324219 11.44226562 -5.81898437 12.25953125 -5.88671875 13.1015625 C-5.92410156 13.72804688 -5.96148437 14.35453125 -6 15 C-6.33 15 -6.66 15 -7 15 C-7.78368469 6.03116407 -7.78368469 6.03116407 -4.625 1.875 C-2 0 -2 0 0 0 Z " transform="translate(79,26)" style="fill: #473F24;"/><path d="M0 0 C0.66 0.33 1.32 0.66 2 1 C2 1.66 2 2.32 2 3 C2.66 3 3.32 3 4 3 C4 3.66 4 4.32 4 5 C1.36 5 -1.28 5 -4 5 C-4 4.01 -4 3.02 -4 2 C-2.68 2 -1.36 2 0 2 C0 1.34 0 0.68 0 0 Z " transform="translate(30,82)" style="fill: #E6AC11;"/><path d="M0 0 C0.33 1.65 0.66 3.3 1 5 C-0.32 5.33 -1.64 5.66 -3 6 C-3.38218767 4.34385343 -3.71395102 2.67542976 -4 1 C-3 0 -3 0 0 0 Z " transform="translate(114,31)" style="fill: #B17300;"/><path d="M0 0 C1.74627478 2.61941217 2.38722388 4.03824877 3 7 C3.66 7 4.32 7 5 7 C5 7.66 5 8.32 5 9 C4.34 9 3.68 9 3 9 C2.67 10.32 2.34 11.64 2 13 C1.71125 11.88625 1.4225 10.7725 1.125 9.625 C0.30758671 5.99708908 0.30758671 5.99708908 -2 4 C-1.34 4 -0.68 4 0 4 C0 2.68 0 1.36 0 0 Z " transform="translate(60,36)" style="fill: #B38100;"/><path d="M0 0 C0.33 1.98 0.66 3.96 1 6 C-0.65 6 -2.3 6 -4 6 C-2.92307692 0 -2.92307692 0 0 0 Z " transform="translate(93,103)" style="fill: #F6D772;"/><path d="M0 0 C2.475 0.495 2.475 0.495 5 1 C4.67 2.32 4.34 3.64 4 5 C2.68 5 1.36 5 0 5 C0 3.35 0 1.7 0 0 Z " transform="translate(133,47)" style="fill: #B77600;"/><path d="M0 0 C1.32 0 2.64 0 4 0 C3.67 1.65 3.34 3.3 3 5 C1.68 4.67 0.36 4.34 -1 4 C-0.67 2.68 -0.34 1.36 0 0 Z " transform="translate(37,104)" style="fill: #BF7C00;"/><path d="M0 0 C-0.66 2.97 -1.32 5.94 -2 9 C-2.33 7.68 -2.66 6.36 -3 5 C-3.99 5 -4.98 5 -6 5 C-3.74193548 0 -3.74193548 0 0 0 Z " transform="translate(49,40)" style="fill: #D2BD6D;"/><path d="M0 0 C2.475 0.495 2.475 0.495 5 1 C4.67 2.65 4.34 4.3 4 6 C3.01 5.67 2.02 5.34 1 5 C0.67 3.35 0.34 1.7 0 0 Z " transform="translate(44,135)" style="fill: #F7DB7C;"/><path d="M0 0 C1.98 0.495 1.98 0.495 4 1 C3.67 2.32 3.34 3.64 3 5 C1.68 4.67 0.36 4.34 -1 4 C-0.67 2.68 -0.34 1.36 0 0 Z " transform="translate(93,114)" style="fill: #C27E00;"/><path d="M0 0 C1.98 0.495 1.98 0.495 4 1 C3.67 2.32 3.34 3.64 3 5 C1.68 4.67 0.36 4.34 -1 4 C-0.67 2.68 -0.34 1.36 0 0 Z " transform="translate(65,100)" style="fill: #C48000;"/><path d="M0 0 C1.98 0.495 1.98 0.495 4 1 C3.67 2.32 3.34 3.64 3 5 C1.68 4.67 0.36 4.34 -1 4 C-0.67 2.68 -0.34 1.36 0 0 Z " transform="translate(35,76)" style="fill: #C27F00;"/><path d="M0 0 C1.98 0.495 1.98 0.495 4 1 C3.67 2.32 3.34 3.64 3 5 C1.68 4.67 0.36 4.34 -1 4 C-0.67 2.68 -0.34 1.36 0 0 Z " transform="translate(93,60)" style="fill: #C68000;"/><path d="M0 0 C-1.20381448 2.49361571 -2.45428722 4.68143083 -4 7 C-4.66 7 -5.32 7 -6 7 C-5.6875 4.625 -5.6875 4.625 -5 2 C-2 0 -2 0 0 0 Z " transform="translate(62,14)" style="fill: #BC7900;"/><path d="M0 0 C0.99 0.66 1.98 1.32 3 2 C1.75023244 5.65316671 1.32901247 6.78065836 -2 9 C-1.34 6.03 -0.68 3.06 0 0 Z " transform="translate(120,143)" style="fill: #F1AD00;"/><path d="M0 0 C1.65 0 3.3 0 5 0 C5 1.32 5 2.64 5 4 C3.35 4 1.7 4 0 4 C0 2.68 0 1.36 0 0 Z " transform="translate(109,144)" style="fill: #C58000;"/><path d="M0 0 C1.65 0 3.3 0 5 0 C5 1.32 5 2.64 5 4 C3.35 4 1.7 4 0 4 C0 2.68 0 1.36 0 0 Z " transform="translate(116,74)" style="fill: #C27F00;"/><path d="M0 0 C1.80411967 2.75924185 2.0127245 3.88972103 1.625 7.25 C1.41875 8.1575 1.2125 9.065 1 10 C-0.5625 8.3125 -0.5625 8.3125 -2 6 C-1.58974359 1.58974359 -1.58974359 1.58974359 0 0 Z " transform="translate(28,71)" style="fill: #CEBB6C;"/><path d="M0 0 C2 1 2 1 3 4 C4.49985609 5.66710346 4.49985609 5.66710346 6 7 C2.5625 6.1875 2.5625 6.1875 -1 5 C-1.33 4.01 -1.66 3.02 -2 2 C-1.34 2 -0.68 2 0 2 C0 1.34 0 0.68 0 0 Z " transform="translate(72,41)" style="fill: #C8B368;"/><path d="M0 0 C0.66 0.33 1.32 0.66 2 1 C0.02 3.31 -1.96 5.62 -4 8 C-4.66 7.67 -5.32 7.34 -6 7 C-4.02 4.69 -2.04 2.38 0 0 Z " transform="translate(47,31)" style="fill: #3B2500;"/><path d="M0 0 C1.32 1.32 2.64 2.64 4 4 C3.01 4 2.02 4 1 4 C1.33 5.32 1.66 6.64 2 8 C0.68 6.68 -0.64 5.36 -2 4 C-1.34 3.67 -0.68 3.34 0 3 C0 2.01 0 1.02 0 0 Z " transform="translate(43,131)" style="fill: #CAB569;"/><path d="M0 0 C-1.70828921 2.10633718 -2.52148416 2.93801608 -5.26171875 3.29296875 C-6.06222656 3.25816406 -6.86273438 3.22335938 -7.6875 3.1875 C-8.49574219 3.16042969 -9.30398437 3.13335937 -10.13671875 3.10546875 C-10.75160156 3.07066406 -11.36648437 3.03585938 -12 3 C-12 2.67 -12 2.34 -12 2 C-10.906875 1.690625 -9.81375 1.38125 -8.6875 1.0625 C-1.82795699 -0.91397849 -1.82795699 -0.91397849 0 0 Z " transform="translate(153,83)" style="fill: #B68100;"/><path d="M0 0 C2.31 0.33 4.62 0.66 7 1 C6.01 2.32 5.02 3.64 4 5 C2 3.625 2 3.625 0 2 C0 1.34 0 0.68 0 0 Z " transform="translate(115,25)" style="fill: #D29801;"/><path d="M0 0 C1 2 1 2 0 5 C0.66 5.33 1.32 5.66 2 6 C0.515 6.99 0.515 6.99 -1 8 C-1.66 7.67 -2.32 7.34 -3 7 C-1.125 1.125 -1.125 1.125 0 0 Z " transform="translate(77,125)" style="fill: #B19F5C;"/><path d="M0 0 C1.0625 1.8125 1.0625 1.8125 2 4 C1.67 4.99 1.34 5.98 1 7 C0.01 7 -0.98 7 -2 7 C-1.125 1.125 -1.125 1.125 0 0 Z " transform="translate(113,63)" style="fill: #CFBA6B;"/><path d="M0 0 C3.36591866 1.44253657 5.51047079 3.33264727 8 6 C7.01 6.495 7.01 6.495 6 7 C6 6.34 6 5.68 6 5 C4.68 5 3.36 5 2 5 C1.34 3.35 0.68 1.7 0 0 Z " transform="translate(135,34)" style="fill: #C28C00;"/><path d="M0 0 C0.598125 0.20625 1.19625 0.4125 1.8125 0.625 C1.1525 1.945 0.4925 3.265 -0.1875 4.625 C-1.8375 3.635 -3.4875 2.645 -5.1875 1.625 C-2.1875 -0.375 -2.1875 -0.375 0 0 Z " transform="translate(91.1875,21.375)" style="fill: #CFBA6C;"/><path d="M0 0 C0.33 0 0.66 0 1 0 C1.33 3.63 1.66 7.26 2 11 C1.01 10.67 0.02 10.34 -1 10 C-0.67 6.7 -0.34 3.4 0 0 Z " transform="translate(70,32)" style="fill: #F9E383;"/></svg>